<svg width="149" height="46" viewBox="0 0 149 46" fill="none" xmlns="http://www.w3.org/2000/svg">
<rect width="149" height="46" rx="5" fill="black"/>
<path d="M41.845 14.01H42.979C43.567 14.01 44.05 13.824 44.428 13.452C44.812 13.074 45.004 12.531 45.004 11.823C45.004 11.109 44.815 10.563 44.437 10.185C44.059 9.801 43.576 9.609 42.988 9.609H41.845V14.01ZM43.015 15H40.765V8.619H43.024C43.924 8.619 44.665 8.904 45.247 9.474C45.835 10.044 46.129 10.827 46.129 11.823C46.129 12.813 45.835 13.59 45.247 14.154C44.659 14.718 43.915 15 43.015 15ZM48.6101 10.113C48.1901 10.515 47.9801 11.079 47.9801 11.805C47.9801 12.531 48.1901 13.098 48.6101 13.506C49.0301 13.908 49.5311 14.109 50.1131 14.109C50.6951 14.109 51.1961 13.908 51.6161 13.506C52.0421 13.098 52.2551 12.531 52.2551 11.805C52.2551 11.079 52.0421 10.515 51.6161 10.113C51.1961 9.705 50.6951 9.501 50.1131 9.501C49.5311 9.501 49.0301 9.705 48.6101 10.113ZM47.3321 13.587C47.0261 13.071 46.8731 12.477 46.8731 11.805C46.8731 11.133 47.0261 10.542 47.3321 10.032C47.6441 9.516 48.0431 9.129 48.5291 8.871C49.0151 8.613 49.5431 8.484 50.1131 8.484C50.6831 8.484 51.2111 8.613 51.6971 8.871C52.1831 9.129 52.5821 9.516 52.8941 10.032C53.2061 10.542 53.3621 11.133 53.3621 11.805C53.3621 12.477 53.2061 13.071 52.8941 13.587C52.5821 14.103 52.1831 14.49 51.6971 14.748C51.2111 15.006 50.6831 15.135 50.1131 15.135C49.5431 15.135 49.0151 15.006 48.5291 14.748C48.0431 14.49 47.6441 14.103 47.3321 13.587ZM60.2042 13.317L61.4552 8.619H62.5712L60.7802 15H59.6642L58.1162 10.176L56.5682 15H55.4612L53.6522 8.619H54.7862L56.0642 13.281L57.5582 8.619H58.6832L60.2042 13.317ZM68.8046 15H67.6796L64.5296 10.167V15H63.4496V8.619H64.8266L67.7246 13.146V8.619H68.8046V15ZM74.3364 15H70.3314V8.619H71.4114V13.974H74.3364V15ZM76.4187 10.113C75.9987 10.515 75.7887 11.079 75.7887 11.805C75.7887 12.531 75.9987 13.098 76.4187 13.506C76.8387 13.908 77.3397 14.109 77.9217 14.109C78.5037 14.109 79.0047 13.908 79.4247 13.506C79.8507 13.098 80.0637 12.531 80.0637 11.805C80.0637 11.079 79.8507 10.515 79.4247 10.113C79.0047 9.705 78.5037 9.501 77.9217 9.501C77.3397 9.501 76.8387 9.705 76.4187 10.113ZM75.1407 13.587C74.8347 13.071 74.6817 12.477 74.6817 11.805C74.6817 11.133 74.8347 10.542 75.1407 10.032C75.4527 9.516 75.8517 9.129 76.3377 8.871C76.8237 8.613 77.3517 8.484 77.9217 8.484C78.4917 8.484 79.0197 8.613 79.5057 8.871C79.9917 9.129 80.3907 9.516 80.7027 10.032C81.0147 10.542 81.1707 11.133 81.1707 11.805C81.1707 12.477 81.0147 13.071 80.7027 13.587C80.3907 14.103 79.9917 14.49 79.5057 14.748C79.0197 15.006 78.4917 15.135 77.9217 15.135C77.3517 15.135 76.8237 15.006 76.3377 14.748C75.8517 14.49 75.4527 14.103 75.1407 13.587ZM86.4034 15L85.8004 13.398H83.1004L82.5064 15H81.3634L83.8474 8.619H85.0984L87.5824 15H86.4034ZM84.4504 9.789L83.4784 12.399H85.4224L84.4504 9.789ZM89.5169 14.01H90.6509C91.2389 14.01 91.7219 13.824 92.0999 13.452C92.4839 13.074 92.6759 12.531 92.6759 11.823C92.6759 11.109 92.4869 10.563 92.1089 10.185C91.7309 9.801 91.2479 9.609 90.6599 9.609H89.5169V14.01ZM90.6869 15H88.4369V8.619H90.6959C91.5959 8.619 92.3369 8.904 92.9189 9.474C93.5069 10.044 93.8009 10.827 93.8009 11.823C93.8009 12.813 93.5069 13.59 92.9189 14.154C92.3309 14.718 91.5869 15 90.6869 15ZM98.5144 10.113C98.0944 10.515 97.8844 11.079 97.8844 11.805C97.8844 12.531 98.0944 13.098 98.5144 13.506C98.9344 13.908 99.4354 14.109 100.017 14.109C100.599 14.109 101.1 13.908 101.52 13.506C101.946 13.098 102.159 12.531 102.159 11.805C102.159 11.079 101.946 10.515 101.52 10.113C101.1 9.705 100.599 9.501 100.017 9.501C99.4354 9.501 98.9344 9.705 98.5144 10.113ZM97.2364 13.587C96.9304 13.071 96.7774 12.477 96.7774 11.805C96.7774 11.133 96.9304 10.542 97.2364 10.032C97.5484 9.516 97.9474 9.129 98.4334 8.871C98.9194 8.613 99.4474 8.484 100.017 8.484C100.587 8.484 101.115 8.613 101.601 8.871C102.087 9.129 102.486 9.516 102.798 10.032C103.11 10.542 103.266 11.133 103.266 11.805C103.266 12.477 103.11 13.071 102.798 13.587C102.486 14.103 102.087 14.49 101.601 14.748C101.115 15.006 100.587 15.135 100.017 15.135C99.4474 15.135 98.9194 15.006 98.4334 14.748C97.9474 14.49 97.5484 14.103 97.2364 13.587ZM109.762 15H108.637L105.487 10.167V15H104.407V8.619H105.784L108.682 13.146V8.619H109.762V15ZM118.102 9.636H116.023V15H114.943V9.636H112.873V8.619H118.102V9.636ZM124.154 15H123.065V12.273H120.068V15H118.988V8.619H120.068V11.256H123.065V8.619H124.154V15ZM129.627 15H125.685V8.619H129.627V9.627H126.765V11.319H129.357V12.3H126.765V13.992H129.627V15Z" fill="white"/>
<path d="M50.83 35L49.557 31.618H43.857L42.603 35H40.19L45.434 21.529H48.075L53.319 35H50.83ZM46.707 23.999L44.655 29.509H48.759L46.707 23.999ZM57.0621 38.61H54.8771V25.747H57.0051V27.001C57.2458 26.583 57.6258 26.2347 58.1451 25.956C58.6645 25.6773 59.2661 25.538 59.9501 25.538C61.2801 25.538 62.3251 25.994 63.0851 26.906C63.8451 27.8053 64.2251 28.958 64.2251 30.364C64.2251 31.77 63.8261 32.9353 63.0281 33.86C62.2301 34.772 61.1788 35.228 59.8741 35.228C59.2408 35.228 58.6771 35.1077 58.1831 34.867C57.6891 34.6263 57.3155 34.3223 57.0621 33.955V38.61ZM62.0211 30.364C62.0211 29.5027 61.7931 28.8123 61.3371 28.293C60.8811 27.761 60.2795 27.495 59.5321 27.495C58.7975 27.495 58.1958 27.761 57.7271 28.293C57.2711 28.8123 57.0431 29.5027 57.0431 30.364C57.0431 31.238 57.2711 31.941 57.7271 32.473C58.1958 33.005 58.7975 33.271 59.5321 33.271C60.2668 33.271 60.8621 33.005 61.3181 32.473C61.7868 31.941 62.0211 31.238 62.0211 30.364ZM68.5289 38.61H66.3439V25.747H68.4719V27.001C68.7126 26.583 69.0926 26.2347 69.6119 25.956C70.1313 25.6773 70.7329 25.538 71.4169 25.538C72.7469 25.538 73.7919 25.994 74.5519 26.906C75.3119 27.8053 75.6919 28.958 75.6919 30.364C75.6919 31.77 75.2929 32.9353 74.4949 33.86C73.6969 34.772 72.6456 35.228 71.3409 35.228C70.7076 35.228 70.1439 35.1077 69.6499 34.867C69.1559 34.6263 68.7823 34.3223 68.5289 33.955V38.61ZM73.4879 30.364C73.4879 29.5027 73.2599 28.8123 72.8039 28.293C72.3479 27.761 71.7463 27.495 70.9989 27.495C70.2643 27.495 69.6626 27.761 69.1939 28.293C68.7379 28.8123 68.5099 29.5027 68.5099 30.364C68.5099 31.238 68.7379 31.941 69.1939 32.473C69.6626 33.005 70.2643 33.271 70.9989 33.271C71.7336 33.271 72.3289 33.005 72.7849 32.473C73.2536 31.941 73.4879 31.238 73.4879 30.364ZM91.5676 24.683L89.5156 25.329C89.427 24.8097 89.1673 24.3347 88.7366 23.904C88.306 23.4733 87.6853 23.258 86.8746 23.258C86.2033 23.258 85.646 23.448 85.2026 23.828C84.772 24.208 84.5566 24.664 84.5566 25.196C84.5566 26.1207 85.0823 26.697 86.1336 26.925L88.0716 27.324C89.237 27.552 90.1363 28.0143 90.7696 28.711C91.403 29.4077 91.7196 30.2373 91.7196 31.2C91.7196 32.3147 91.289 33.2773 90.4276 34.088C89.579 34.886 88.42 35.285 86.9506 35.285C85.3673 35.285 84.1323 34.8733 83.2456 34.05C82.359 33.214 81.8586 32.245 81.7446 31.143L83.8726 30.535C83.9486 31.295 84.2526 31.9347 84.7846 32.454C85.3166 32.9733 86.0386 33.233 86.9506 33.233C87.736 33.233 88.3376 33.062 88.7556 32.72C89.1863 32.3653 89.4016 31.9157 89.4016 31.371C89.4016 30.9277 89.2433 30.5477 88.9266 30.231C88.61 29.9017 88.1666 29.6737 87.5966 29.547L85.6966 29.148C84.6453 28.9327 83.8093 28.4957 83.1886 27.837C82.5806 27.1783 82.2766 26.355 82.2766 25.367C82.2766 24.2397 82.7263 23.2707 83.6256 22.46C84.525 21.6493 85.6016 21.244 86.8556 21.244C88.287 21.244 89.3826 21.5923 90.1426 22.289C90.9026 22.973 91.3776 23.771 91.5676 24.683ZM96.6535 22.916V25.747H98.5725V27.704H96.6535V31.998C96.6535 32.4033 96.7485 32.701 96.9385 32.891C97.1285 33.0683 97.4262 33.157 97.8315 33.157C98.0849 33.157 98.3382 33.1317 98.5915 33.081V34.905C98.2622 35.0443 97.8125 35.114 97.2425 35.114C96.3812 35.114 95.7035 34.8733 95.2095 34.392C94.7155 33.898 94.4685 33.2203 94.4685 32.359V27.704H92.7585V25.747H93.2335C93.7022 25.747 94.0569 25.614 94.2975 25.348C94.5382 25.082 94.6585 24.7337 94.6585 24.303V22.916H96.6535ZM102.967 32.53C103.474 33.0493 104.088 33.309 104.81 33.309C105.532 33.309 106.14 33.0493 106.634 32.53C107.141 32.0107 107.394 31.2887 107.394 30.364C107.394 29.452 107.141 28.7427 106.634 28.236C106.14 27.7167 105.532 27.457 104.81 27.457C104.088 27.457 103.474 27.7167 102.967 28.236C102.473 28.7427 102.226 29.452 102.226 30.364C102.226 31.276 102.473 31.998 102.967 32.53ZM104.81 25.462C106.204 25.462 107.35 25.9243 108.249 26.849C109.161 27.7737 109.617 28.9453 109.617 30.364C109.617 31.7827 109.161 32.9607 108.249 33.898C107.35 34.8227 106.204 35.285 104.81 35.285C103.43 35.285 102.283 34.8227 101.371 33.898C100.472 32.9607 100.022 31.7827 100.022 30.364C100.022 28.9453 100.472 27.7737 101.371 26.849C102.283 25.9243 103.43 25.462 104.81 25.462ZM117.162 25.69V27.932C116.909 27.894 116.668 27.875 116.44 27.875C114.781 27.875 113.951 28.7807 113.951 30.592V35H111.747V25.747H113.894V27.229C114.11 26.735 114.458 26.3487 114.939 26.07C115.421 25.7787 115.965 25.633 116.573 25.633C116.776 25.633 116.972 25.652 117.162 25.69ZM120.448 29.357H124.989C124.964 28.7743 124.755 28.2867 124.362 27.894C123.982 27.5013 123.431 27.305 122.709 27.305C122.051 27.305 121.519 27.514 121.113 27.932C120.708 28.3373 120.486 28.8123 120.448 29.357ZM125.236 31.77L127.098 32.359C126.832 33.2077 126.332 33.9107 125.597 34.468C124.875 35.0127 123.982 35.285 122.918 35.285C121.601 35.285 120.48 34.8353 119.555 33.936C118.643 33.0367 118.187 31.8333 118.187 30.326C118.187 28.9073 118.631 27.742 119.517 26.83C120.417 25.918 121.474 25.462 122.69 25.462C124.109 25.462 125.217 25.899 126.015 26.773C126.813 27.6343 127.212 28.7997 127.212 30.269C127.212 30.6617 127.193 30.896 127.155 30.972H120.391C120.417 31.6687 120.67 32.245 121.151 32.701C121.645 33.157 122.234 33.385 122.918 33.385C124.109 33.385 124.882 32.8467 125.236 31.77Z" fill="white"/>
<path d="M28.0297 23.6827C28.0182 21.7162 28.9693 20.232 30.8943 19.139C29.8172 17.6976 28.1901 16.9046 26.0417 16.7493C24.0078 16.5992 21.7849 17.8584 20.9714 17.8584C20.112 17.8584 18.1411 16.8028 16.5943 16.8028C13.3974 16.8511 10 19.1872 10 23.9399C10 25.3437 10.275 26.7939 10.825 28.2906C11.5583 30.2571 14.2052 35.0794 16.9667 34.999C18.4104 34.9669 19.4302 34.0399 21.3094 34.0399C23.1312 34.0399 24.0766 34.999 25.6865 34.999C28.4708 34.9615 30.8656 30.5786 31.5646 28.6068C27.8292 26.9618 28.0297 23.7845 28.0297 23.6827V23.6827ZM24.787 14.8846C26.351 13.1486 26.2078 11.568 26.162 11C24.7813 11.075 23.1828 11.8787 22.2719 12.87C21.2693 13.9309 20.6792 15.2436 20.8052 16.7225C22.3005 16.8296 23.6641 16.1116 24.787 14.8846V14.8846Z" fill="white"/>
</svg>
