<svg width="60" height="60" viewBox="0 0 60 60" fill="none" xmlns="http://www.w3.org/2000/svg">
<path d="M57.9493 33.7412C51.646 24.0896 52.316 14.1962 49.2776 9.54458C46.2393 4.89291 37.1843 -3.12709 15.7893 10.8479C-5.6057 24.8229 -0.164031 40.0146 3.1793 45.1296C18.826 69.0829 69.1143 50.8346 57.9493 33.7412V33.7412Z" fill="#E5E5E5"/>
<path d="M43.0898 43.7505L44.2684 42.572L46.6254 44.929L45.4469 46.1075L43.0898 43.7505Z" fill="#A4AFC1"/>
<path d="M49.8672 50.5286L51.0457 49.3501L53.4027 51.7071L52.2242 52.8856L49.8672 50.5286Z" fill="#A4AFC1"/>
<path d="M42.7969 51.6921L45.1539 49.3351L46.3324 50.5136L43.9754 52.8706L42.7969 51.6921Z" fill="#A4AFC1"/>
<path d="M49.5713 44.9182L51.9283 42.5612L53.1068 43.7397L50.7498 46.0967L49.5713 44.9182Z" fill="#A4AFC1"/>
<path d="M13.6035 24.375H10V21.1719H13.6035V24.375ZM11.4755 30.7015L12.9166 33.5621L16.3149 31.8504L14.8741 28.9898L11.4755 30.7015ZM16.2348 13.4518L12.9163 11.7805L11.4755 14.6414L14.7941 16.3124L16.2348 13.4518ZM48.1547 24.375C48.003 24.9618 47.769 25.5155 47.4678 26.025L49.5014 28.0586L47.2363 30.3236L45.2028 28.2901C44.6932 28.5913 44.1396 28.8253 43.5527 28.977V31.8223H40.3496V28.977C39.7628 28.8253 39.2091 28.5913 38.6996 28.2901L36.666 30.3236L34.401 28.0586L36.4345 26.025C36.1333 25.5155 35.8993 24.9618 35.7476 24.375H32.8223V21.1719H35.7476C35.8993 20.5851 36.1333 20.0314 36.4345 19.5218L34.401 17.4883L36.666 15.2233L38.6996 17.2568C39.2091 16.9556 39.7628 16.7216 40.3496 16.5699V13.7246H43.5527V16.5699C44.1396 16.7216 44.6932 16.9556 45.2028 17.2568L47.2363 15.2233L49.5014 17.4883L47.4678 19.5218C47.769 20.0314 48.003 20.5851 48.1547 21.1719H51V24.375H48.1547ZM38.748 22.7134C38.748 24.4626 40.1253 25.9343 41.8739 25.9756C43.6754 26.0182 45.1543 24.5655 45.1543 22.7734C45.1543 21.0073 43.7173 19.5703 41.9512 19.5703C41.933 19.5703 41.9136 19.5703 41.893 19.5703C40.1566 19.5697 38.748 20.977 38.748 22.7134ZM36.2099 33.5943C37.1815 34.1117 38.2307 34.5021 39.3349 34.7432C37.9 36.6645 36.8352 38.359 36.8352 40.9843V45.1953C36.8352 47.8448 34.6797 50 32.0306 50H28.9698C26.3203 50 24.1651 47.8448 24.1651 45.1953V40.9843C24.1651 38.0286 22.8156 36.2528 21.1077 34.0053C19.0654 31.3177 16.7522 28.2738 16.7269 22.7734H16.7266L16.7269 22.6818C16.7763 15.1291 22.9357 9 30.5 9C33.2424 9 35.7999 9.8061 37.9488 11.1934C36.7173 11.6204 35.574 12.2385 34.5552 13.0124C33.3059 12.4915 31.9361 12.2031 30.5 12.2031C24.685 12.2031 19.9516 16.9227 19.9297 22.7328C19.9435 27.179 21.748 29.5538 23.658 32.0672C25.1401 34.0175 26.6631 36.022 27.1821 38.8691H33.8189C34.2046 36.7533 35.1442 35.1027 36.2099 33.5943ZM33.6318 45.1953V42.0723H27.3679V45.1953C27.3679 46.0784 28.0864 46.7969 28.9694 46.7969H32.0302C32.9136 46.7969 33.6318 46.0784 33.6318 45.1953Z" fill="#1E266D"/>
<circle cx="42.5" cy="22.5" r="4.5" fill="#F8A33A"/>
</svg>
