<svg width="28" height="18" viewBox="0 0 28 18" fill="none" xmlns="http://www.w3.org/2000/svg">
<path d="M26.6 0H1.4C0.626938 0 0 0.671719 0 1.5V16.5C0 17.3283 0.626938 18 1.4 18H26.6C27.3731 18 28 17.3283 28 16.5V1.5C28 0.671719 27.3731 0 26.6 0ZM2.1 15.75V12.75C3.64656 12.75 4.9 14.093 4.9 15.75H2.1ZM2.1 5.25V2.25H4.9C4.9 3.90703 3.64656 5.25 2.1 5.25ZM14 13.5C12.0667 13.5 10.5 11.4848 10.5 9C10.5 6.51469 12.0671 4.5 14 4.5C15.9329 4.5 17.5 6.51469 17.5 9C17.5 11.4858 15.9324 13.5 14 13.5ZM25.9 15.75H23.1C23.1 14.093 24.3534 12.75 25.9 12.75V15.75ZM25.9 5.25C24.3534 5.25 23.1 3.90703 23.1 2.25H25.9V5.25Z" fill="#B65C71"/>
</svg>
