<svg width="27" height="18" viewBox="0 0 27 18" fill="none" xmlns="http://www.w3.org/2000/svg">
<path d="M26.2048 0.902411C24.5683 0.248705 22.9307 4.83251e-08 21.2938 4.83251e-08C16.0977 -0.000401737 10.9019 2.50473 5.70577 2.50473C4.40262 2.50473 3.10031 2.34723 1.79716 1.95348C1.65077 1.90929 1.50396 1.88839 1.36053 1.88839C0.63449 1.88839 0 2.42357 0 3.16647V15.9135C0 16.421 0.305011 16.9019 0.7948 17.0972C2.43123 17.7513 4.06892 18 5.70577 18C10.9019 18 16.0981 15.4949 21.2942 15.4949C22.5974 15.4949 23.8997 15.6524 25.2028 16.0461C25.3492 16.0903 25.496 16.1112 25.6395 16.1112C26.3655 16.1112 27 15.576 27 14.8331V2.08647C26.9996 1.57862 26.6946 1.09808 26.2048 0.902411ZM13.4998 12.8571C11.6356 12.8571 10.1248 11.1299 10.1248 9C10.1248 6.86973 11.636 5.14286 13.4998 5.14286C15.3636 5.14286 16.8747 6.86973 16.8747 9C16.8747 11.1307 15.3632 12.8571 13.4998 12.8571Z" fill="#007bff"/>
</svg>
