<svg width="27" height="21" viewBox="0 0 27 21" fill="none" xmlns="http://www.w3.org/2000/svg">
<path d="M0 18.75C0 19.9922 1.00781 21 2.25 21H24.75C25.9922 21 27 19.9922 27 18.75V10.5H0V18.75ZM9 15.5625C9 15.2531 9.25313 15 9.5625 15H15.9375C16.2469 15 16.5 15.2531 16.5 15.5625V17.4375C16.5 17.7469 16.2469 18 15.9375 18H9.5625C9.25313 18 9 17.7469 9 17.4375V15.5625ZM3 15.5625C3 15.2531 3.25312 15 3.5625 15H6.9375C7.24687 15 7.5 15.2531 7.5 15.5625V17.4375C7.5 17.7469 7.24687 18 6.9375 18H3.5625C3.25312 18 3 17.7469 3 17.4375V15.5625ZM27 2.25V4.5H0V2.25C0 1.00781 1.00781 0 2.25 0H24.75C25.9922 0 27 1.00781 27 2.25Z" fill="#F26A36"/>
</svg>
