<svg width="60" height="60" viewBox="0 0 60 60" fill="none" xmlns="http://www.w3.org/2000/svg">
<path d="M58.1729 33.9251C51.8696 24.2734 52.5396 14.3801 49.5013 9.72842C46.4629 5.07675 37.4079 -2.94325 16.0129 11.0317C-5.38207 25.0067 0.0596014 40.1984 3.40293 45.3134C19.0496 69.2667 69.3379 51.0184 58.1729 33.9251V33.9251Z" fill="#E5E5E5"/>
<path d="M35.4167 14.5833V41.25H11.25V14.5833C11.25 12.75 12.75 11.25 14.5833 11.25H32.0833C33.9167 11.25 35.4167 12.75 35.4167 14.5833Z" fill="#F3F3F1"/>
<path d="M35.4167 41.25V45.4167C35.4167 47.25 33.9167 48.75 32.0833 48.75H14.5833C12.75 48.75 11.25 47.25 11.25 45.4167V41.25H35.4167Z" fill="#2FDF84"/>
<path d="M18.3333 11.25H14.5833C12.75 11.25 11.25 12.75 11.25 14.5833V41.25H15V14.5833C15 12.75 16.5 11.25 18.3333 11.25Z" fill="#D5DBE1"/>
<path d="M15 45.4167V41.25H11.25V45.4167C11.25 47.25 12.75 48.75 14.5833 48.75H18.3333C16.5 48.75 15 47.25 15 45.4167Z" fill="#00B871"/>
<path d="M39.1663 37.9167C44.4591 37.9167 48.7497 33.6261 48.7497 28.3333C48.7497 23.0406 44.4591 18.75 39.1663 18.75C33.8736 18.75 29.583 23.0406 29.583 28.3333C29.583 33.6261 33.8736 37.9167 39.1663 37.9167Z" fill="#2FDF84"/>
<path d="M33.333 28.3333C33.333 23.6833 36.6463 19.8083 41.0413 18.9367C40.4347 18.8167 39.808 18.75 39.1663 18.75C33.873 18.75 29.583 23.04 29.583 28.3333C29.583 33.6267 33.873 37.9167 39.1663 37.9167C39.808 37.9167 40.4347 37.8517 41.0413 37.73C36.6463 36.8583 33.333 32.9833 33.333 28.3333Z" fill="#00B871"/>
<path d="M43.3135 43.9343L44.492 42.7558L46.849 45.1128L45.6705 46.2913L43.3135 43.9343Z" fill="#A4AFC1"/>
<path d="M50.0908 50.7124L51.2693 49.5339L53.6264 51.8909L52.4478 53.0694L50.0908 50.7124Z" fill="#A4AFC1"/>
<path d="M43.0205 51.876L45.3775 49.519L46.556 50.6975L44.199 53.0545L43.0205 51.876Z" fill="#A4AFC1"/>
<path d="M49.7949 45.1021L52.1519 42.745L53.3305 43.9235L50.9734 46.2806L49.7949 45.1021Z" fill="#A4AFC1"/>
<path d="M39.1673 39.1667C33.194 39.1667 28.334 34.3067 28.334 28.3333C28.334 22.36 33.194 17.5 39.1673 17.5C45.1407 17.5 50.0007 22.36 50.0007 28.3333C50.0007 34.3067 45.1407 39.1667 39.1673 39.1667ZM39.1673 20C34.5723 20 30.834 23.7383 30.834 28.3333C30.834 32.9283 34.5723 36.6667 39.1673 36.6667C43.7623 36.6667 47.5007 32.9283 47.5007 28.3333C47.5007 23.7383 43.7623 20 39.1673 20Z" fill="#1E266D"/>
<path d="M41.2003 32.135L38.2837 29.2183C38.0487 28.9833 37.917 28.6667 37.917 28.3333V23.75H40.417V27.815L42.967 30.365L41.2003 32.135Z" fill="#1E266D"/>
<path d="M32.0833 50H14.5833C12.055 50 10 47.945 10 45.4167V14.5833C10 12.0567 12.055 10 14.5833 10H32.0833C34.6117 10 36.6667 12.0567 36.6667 14.5833V15.4167H34.1667V14.5833C34.1667 13.435 33.2317 12.5 32.0833 12.5H14.5833C13.435 12.5 12.5 13.435 12.5 14.5833V40H35.4167C36.1067 40 36.6667 40.56 36.6667 41.25V45.4167C36.6667 47.945 34.6117 50 32.0833 50ZM12.5 42.5V45.4167C12.5 46.565 13.435 47.5 14.5833 47.5H32.0833C33.2317 47.5 34.1667 46.565 34.1667 45.4167V42.5H12.5Z" fill="#1E266D"/>
</svg>
