<svg width="28" height="24" viewBox="0 0 28 24" fill="none" xmlns="http://www.w3.org/2000/svg">
<path d="M9.8 12C12.8931 12 15.4 9.31406 15.4 6C15.4 2.68594 12.8931 0 9.8 0C6.70687 0 4.2 2.68594 4.2 6C4.2 9.31406 6.70687 12 9.8 12ZM13.72 13.5H12.9894C12.0181 13.9781 10.9375 14.25 9.8 14.25C8.6625 14.25 7.58625 13.9781 6.61062 13.5H5.88C2.63375 13.5 0 16.3219 0 19.8V21.75C0 22.9922 0.940625 24 2.1 24H14.1269C14.0219 23.6812 13.9781 23.3438 14.0131 23.0016L14.3106 20.1469L14.3631 19.6266L14.7087 19.2562L18.0906 15.6328C17.0187 14.3344 15.4656 13.5 13.72 13.5ZM15.7019 20.3109L15.4044 23.1703C15.3562 23.6484 15.7325 24.0516 16.1744 23.9953L18.8387 23.6766L24.8719 17.2125L21.735 13.8516L15.7019 20.3109ZM27.6937 12.6047L26.0356 10.8281C25.6287 10.3922 24.9637 10.3922 24.5569 10.8281L22.9031 12.6L22.7237 12.7922L25.865 16.1531L27.6937 14.1937C28.1006 13.7531 28.1006 13.0453 27.6937 12.6047Z" fill="#006DE2"/>
</svg>
