<svg width="48" height="45" viewBox="0 0 48 45" fill="none" xmlns="http://www.w3.org/2000/svg">
<path d="M1.60211 44.7081C2.13798 44.7081 2.57239 44.2737 2.57239 43.7379C2.57239 43.202 2.13798 42.7676 1.60211 42.7676C1.06624 42.7676 0.631836 43.202 0.631836 43.7379C0.631836 44.2737 1.06624 44.7081 1.60211 44.7081Z" fill="#DE6944"/>
<path d="M1.60211 36.3225C2.13798 36.3225 2.57239 35.8881 2.57239 35.3522C2.57239 34.8164 2.13798 34.382 1.60211 34.382C1.06624 34.382 0.631836 34.8164 0.631836 35.3522C0.631836 35.8881 1.06624 36.3225 1.60211 36.3225Z" fill="#DE6944"/>
<path d="M1.60211 27.936C2.13798 27.936 2.57239 27.5016 2.57239 26.9657C2.57239 26.4298 2.13798 25.9954 1.60211 25.9954C1.06624 25.9954 0.631836 26.4298 0.631836 26.9657C0.631836 27.5016 1.06624 27.936 1.60211 27.936Z" fill="#DE6944"/>
<path d="M1.60211 19.6193C2.13798 19.6193 2.57239 19.1849 2.57239 18.649C2.57239 18.1132 2.13798 17.6788 1.60211 17.6788C1.06624 17.6788 0.631836 18.1132 0.631836 18.649C0.631836 19.1849 1.06624 19.6193 1.60211 19.6193Z" fill="#DE6944"/>
<path d="M1.60211 11.2337C2.13798 11.2337 2.57239 10.7993 2.57239 10.2634C2.57239 9.72756 2.13798 9.29315 1.60211 9.29315C1.06624 9.29315 0.631836 9.72756 0.631836 10.2634C0.631836 10.7993 1.06624 11.2337 1.60211 11.2337Z" fill="#DE6944"/>
<path d="M1.60309 2.91724C2.13896 2.91724 2.57337 2.48283 2.57337 1.94696C2.57337 1.41109 2.13896 0.976685 1.60309 0.976685C1.06722 0.976685 0.632812 1.41109 0.632812 1.94696C0.632812 2.48283 1.06722 2.91724 1.60309 2.91724Z" fill="#DE6944"/>
<path d="M46.5132 44.7075C47.0491 44.7075 47.4835 44.2731 47.4835 43.7372C47.4835 43.2014 47.0491 42.767 46.5132 42.767C45.9774 42.767 45.543 43.2014 45.543 43.7372C45.543 44.2731 45.9774 44.7075 46.5132 44.7075Z" fill="#DE6944"/>
<path d="M46.5132 36.3219C47.0491 36.3219 47.4835 35.8875 47.4835 35.3516C47.4835 34.8158 47.0491 34.3813 46.5132 34.3813C45.9774 34.3813 45.543 34.8158 45.543 35.3516C45.543 35.8875 45.9774 36.3219 46.5132 36.3219Z" fill="#DE6944"/>
<path d="M46.5132 27.9354C47.0491 27.9354 47.4835 27.501 47.4835 26.9651C47.4835 26.4292 47.0491 25.9948 46.5132 25.9948C45.9774 25.9948 45.543 26.4292 45.543 26.9651C45.543 27.501 45.9774 27.9354 46.5132 27.9354Z" fill="#DE6944"/>
<path d="M46.5132 19.6187C47.0491 19.6187 47.4835 19.1843 47.4835 18.6484C47.4835 18.1126 47.0491 17.6782 46.5132 17.6782C45.9774 17.6782 45.543 18.1126 45.543 18.6484C45.543 19.1843 45.9774 19.6187 46.5132 19.6187Z" fill="#DE6944"/>
<path d="M46.5132 11.2331C47.0491 11.2331 47.4835 10.7987 47.4835 10.2628C47.4835 9.72695 47.0491 9.29254 46.5132 9.29254C45.9774 9.29254 45.543 9.72695 45.543 10.2628C45.543 10.7987 45.9774 11.2331 46.5132 11.2331Z" fill="#DE6944"/>
<path d="M46.5132 2.91663C47.0491 2.91663 47.4835 2.48222 47.4835 1.94635C47.4835 1.41048 47.0491 0.976074 46.5132 0.976074C45.9774 0.976074 45.543 1.41048 45.543 1.94635C45.543 2.48222 45.9774 2.91663 46.5132 2.91663Z" fill="#DE6944"/>
<path d="M37.5728 44.7075C38.1087 44.7075 38.5431 44.2731 38.5431 43.7372C38.5431 43.2014 38.1087 42.767 37.5728 42.767C37.0369 42.767 36.6025 43.2014 36.6025 43.7372C36.6025 44.2731 37.0369 44.7075 37.5728 44.7075Z" fill="#DE6944"/>
<path d="M37.5728 36.3219C38.1087 36.3219 38.5431 35.8875 38.5431 35.3516C38.5431 34.8158 38.1087 34.3813 37.5728 34.3813C37.0369 34.3813 36.6025 34.8158 36.6025 35.3516C36.6025 35.8875 37.0369 36.3219 37.5728 36.3219Z" fill="#DE6944"/>
<path d="M37.5728 27.9354C38.1087 27.9354 38.5431 27.501 38.5431 26.9651C38.5431 26.4292 38.1087 25.9948 37.5728 25.9948C37.0369 25.9948 36.6025 26.4292 36.6025 26.9651C36.6025 27.501 37.0369 27.9354 37.5728 27.9354Z" fill="#DE6944"/>
<path d="M37.5728 19.6187C38.1087 19.6187 38.5431 19.1843 38.5431 18.6484C38.5431 18.1126 38.1087 17.6782 37.5728 17.6782C37.0369 17.6782 36.6025 18.1126 36.6025 18.6484C36.6025 19.1843 37.0369 19.6187 37.5728 19.6187Z" fill="#DE6944"/>
<path d="M37.5728 11.2331C38.1087 11.2331 38.5431 10.7987 38.5431 10.2628C38.5431 9.72695 38.1087 9.29254 37.5728 9.29254C37.0369 9.29254 36.6025 9.72695 36.6025 10.2628C36.6025 10.7987 37.0369 11.2331 37.5728 11.2331Z" fill="#DE6944"/>
<path d="M37.5728 2.91663C38.1087 2.91663 38.5431 2.48222 38.5431 1.94635C38.5431 1.41048 38.1087 0.976074 37.5728 0.976074C37.0369 0.976074 36.6025 1.41048 36.6025 1.94635C36.6025 2.48222 37.0369 2.91663 37.5728 2.91663Z" fill="#DE6944"/>
<path d="M28.563 44.7075C29.0989 44.7075 29.5333 44.2731 29.5333 43.7372C29.5333 43.2014 29.0989 42.767 28.563 42.767C28.0272 42.767 27.5928 43.2014 27.5928 43.7372C27.5928 44.2731 28.0272 44.7075 28.563 44.7075Z" fill="#DE6944"/>
<path d="M28.563 36.3219C29.0989 36.3219 29.5333 35.8875 29.5333 35.3516C29.5333 34.8158 29.0989 34.3813 28.563 34.3813C28.0272 34.3813 27.5928 34.8158 27.5928 35.3516C27.5928 35.8875 28.0272 36.3219 28.563 36.3219Z" fill="#DE6944"/>
<path d="M28.563 27.9354C29.0989 27.9354 29.5333 27.501 29.5333 26.9651C29.5333 26.4292 29.0989 25.9948 28.563 25.9948C28.0272 25.9948 27.5928 26.4292 27.5928 26.9651C27.5928 27.501 28.0272 27.9354 28.563 27.9354Z" fill="#DE6944"/>
<path d="M28.563 19.6187C29.0989 19.6187 29.5333 19.1843 29.5333 18.6484C29.5333 18.1126 29.0989 17.6782 28.563 17.6782C28.0272 17.6782 27.5928 18.1126 27.5928 18.6484C27.5928 19.1843 28.0272 19.6187 28.563 19.6187Z" fill="#DE6944"/>
<path d="M28.563 11.2331C29.0989 11.2331 29.5333 10.7987 29.5333 10.2628C29.5333 9.72695 29.0989 9.29254 28.563 9.29254C28.0272 9.29254 27.5928 9.72695 27.5928 10.2628C27.5928 10.7987 28.0272 11.2331 28.563 11.2331Z" fill="#DE6944"/>
<path d="M28.563 2.91663C29.0989 2.91663 29.5333 2.48222 29.5333 1.94635C29.5333 1.41048 29.0989 0.976074 28.563 0.976074C28.0272 0.976074 27.5928 1.41048 27.5928 1.94635C27.5928 2.48222 28.0272 2.91663 28.563 2.91663Z" fill="#DE6944"/>
<path d="M19.5533 44.7075C20.0892 44.7075 20.5236 44.2731 20.5236 43.7372C20.5236 43.2014 20.0892 42.767 19.5533 42.767C19.0174 42.767 18.583 43.2014 18.583 43.7372C18.583 44.2731 19.0174 44.7075 19.5533 44.7075Z" fill="#DE6944"/>
<path d="M19.5533 36.3219C20.0892 36.3219 20.5236 35.8875 20.5236 35.3516C20.5236 34.8158 20.0892 34.3813 19.5533 34.3813C19.0174 34.3813 18.583 34.8158 18.583 35.3516C18.583 35.8875 19.0174 36.3219 19.5533 36.3219Z" fill="#DE6944"/>
<path d="M19.5533 27.9354C20.0892 27.9354 20.5236 27.501 20.5236 26.9651C20.5236 26.4292 20.0892 25.9948 19.5533 25.9948C19.0174 25.9948 18.583 26.4292 18.583 26.9651C18.583 27.501 19.0174 27.9354 19.5533 27.9354Z" fill="#DE6944"/>
<path d="M19.5533 19.6187C20.0892 19.6187 20.5236 19.1843 20.5236 18.6484C20.5236 18.1126 20.0892 17.6782 19.5533 17.6782C19.0174 17.6782 18.583 18.1126 18.583 18.6484C18.583 19.1843 19.0174 19.6187 19.5533 19.6187Z" fill="#DE6944"/>
<path d="M19.5533 11.2331C20.0892 11.2331 20.5236 10.7987 20.5236 10.2628C20.5236 9.72695 20.0892 9.29254 19.5533 9.29254C19.0174 9.29254 18.583 9.72695 18.583 10.2628C18.583 10.7987 19.0174 11.2331 19.5533 11.2331Z" fill="#DE6944"/>
<path d="M19.5533 2.91663C20.0892 2.91663 20.5236 2.48222 20.5236 1.94635C20.5236 1.41048 20.0892 0.976074 19.5533 0.976074C19.0174 0.976074 18.583 1.41048 18.583 1.94635C18.583 2.48222 19.0174 2.91663 19.5533 2.91663Z" fill="#DE6944"/>
<path d="M10.5445 44.7075C11.0804 44.7075 11.5148 44.2731 11.5148 43.7372C11.5148 43.2014 11.0804 42.767 10.5445 42.767C10.0086 42.767 9.57422 43.2014 9.57422 43.7372C9.57422 44.2731 10.0086 44.7075 10.5445 44.7075Z" fill="#DE6944"/>
<path d="M10.5445 36.3219C11.0804 36.3219 11.5148 35.8875 11.5148 35.3516C11.5148 34.8158 11.0804 34.3813 10.5445 34.3813C10.0086 34.3813 9.57422 34.8158 9.57422 35.3516C9.57422 35.8875 10.0086 36.3219 10.5445 36.3219Z" fill="#DE6944"/>
<path d="M10.5445 27.9354C11.0804 27.9354 11.5148 27.501 11.5148 26.9651C11.5148 26.4292 11.0804 25.9948 10.5445 25.9948C10.0086 25.9948 9.57422 26.4292 9.57422 26.9651C9.57422 27.501 10.0086 27.9354 10.5445 27.9354Z" fill="#DE6944"/>
<path d="M10.5445 19.6187C11.0804 19.6187 11.5148 19.1843 11.5148 18.6484C11.5148 18.1126 11.0804 17.6782 10.5445 17.6782C10.0086 17.6782 9.57422 18.1126 9.57422 18.6484C9.57422 19.1843 10.0086 19.6187 10.5445 19.6187Z" fill="#DE6944"/>
<path d="M10.5445 11.2331C11.0804 11.2331 11.5148 10.7987 11.5148 10.2628C11.5148 9.72695 11.0804 9.29254 10.5445 9.29254C10.0086 9.29254 9.57422 9.72695 9.57422 10.2628C9.57422 10.7987 10.0086 11.2331 10.5445 11.2331Z" fill="#DE6944"/>
<path d="M10.5435 2.91663C11.0794 2.91663 11.5138 2.48222 11.5138 1.94635C11.5138 1.41048 11.0794 0.976074 10.5435 0.976074C10.0077 0.976074 9.57324 1.41048 9.57324 1.94635C9.57324 2.48222 10.0077 2.91663 10.5435 2.91663Z" fill="#DE6944"/>
</svg>
