<svg width="15" height="14" viewBox="0 0 15 14" fill="none" xmlns="http://www.w3.org/2000/svg">
<path d="M6.15578 0.902216L6.87314 0.217457C7.17689 -0.0724857 7.66806 -0.0724857 7.96858 0.217457L14.2504 6.21064C14.5541 6.50058 14.5541 6.96942 14.2504 7.25628L7.96858 13.2525C7.66483 13.5425 7.17366 13.5425 6.87314 13.2525L6.15578 12.5678C5.8488 12.2748 5.85526 11.7967 6.1687 11.5098L10.0625 7.9688H0.775531C0.345758 7.9688 0 7.63876 0 7.22852V6.24148C0 5.83124 0.345758 5.5012 0.775531 5.5012H10.0625L6.1687 1.9602C5.85203 1.67334 5.84556 1.19524 6.15578 0.902216Z" fill="#183B56"/>
</svg>
