<svg width="41" height="37" viewBox="0 0 41 37" fill="none" xmlns="http://www.w3.org/2000/svg">
<g filter="url(#filter0_d)">
<path d="M18.3984 8.23995C20.0378 7.15971 22.2503 7.61462 23.3304 9.2538C23.8537 10.0479 24.0364 10.9983 23.8448 11.9298C23.7689 12.2991 23.637 12.6474 23.4569 12.9666C23.237 12.7067 23.0059 12.4543 22.7625 12.2109C21.271 10.7194 19.4592 9.66475 17.4824 9.11026C17.7289 8.77426 18.0366 8.47842 18.3984 8.23995Z" fill="white"/>
<path d="M4.01217 20.2766C4.13567 17.7459 5.17988 15.3845 6.98392 13.5804C8.42723 12.1371 10.2272 11.1801 12.1852 10.7919C12.8378 10.6625 13.508 10.5962 14.1884 10.5962C14.4239 10.5962 14.658 10.6046 14.8908 10.6204C15.5438 10.6646 16.1846 10.7704 16.8069 10.9348C18.5259 11.3887 20.1021 12.2898 21.3928 13.5804C21.5732 13.7608 21.746 13.9469 21.911 14.138C21.9663 14.202 22.0207 14.2665 22.0742 14.3316C22.489 14.8366 22.8508 15.376 23.1575 15.9423C23.8854 17.2862 24.301 18.7835 24.367 20.3438C24.3732 20.4903 24.377 20.6373 24.377 20.7849C24.377 21.4652 24.3107 22.1354 24.1813 22.788C24.1489 22.9512 24.1126 23.1133 24.0724 23.2741C24.0464 23.3779 24.0183 23.4808 23.9892 23.5835C23.521 25.2325 22.6383 26.7438 21.3928 27.9893C21.3702 28.0119 21.3471 28.0338 21.3243 28.0562C21.2864 28.0933 21.2488 28.1308 21.2105 28.1672C20.5605 28.7863 19.8423 29.3092 19.0737 29.7304C18.9716 29.7864 18.8689 29.8412 18.7651 29.8935C18.7582 29.897 18.7512 29.9002 18.7443 29.9036C17.6766 30.4383 16.5189 30.7799 15.3148 30.9115C15.2168 30.9222 15.1184 30.9317 15.0198 30.9396C14.7446 30.9617 14.4675 30.9735 14.1884 30.9735C11.6371 30.9735 9.22883 30.0421 7.35221 28.34C7.22711 28.2265 7.10432 28.1097 6.98405 27.9894C5.05967 26.065 3.9998 23.5064 3.9998 20.785C3.9998 20.6147 4.00392 20.4452 4.01217 20.2766ZM12.2458 20.4229L13.2429 19.4257V25.7727H15.1795V19.4257L16.1311 20.3772L17.5004 19.0079L14.2113 15.7187L10.8764 19.0535L12.2458 20.4229Z" fill="white"/>
<path d="M37 2V20.3435H26.3049C26.2327 18.3101 25.6619 16.3644 24.6506 14.6473C25.1879 13.9772 25.5636 13.1853 25.7416 12.3197C26.0372 10.8815 25.7551 9.41419 24.9472 8.18822C24.1393 6.96213 22.9023 6.12404 21.4641 5.82839C20.026 5.53281 18.5586 5.81486 17.3327 6.62272C16.5153 7.16135 15.8756 7.88922 15.4517 8.72454C15.0347 8.68168 14.6133 8.65937 14.1885 8.65937C10.9497 8.65937 7.90477 9.9206 5.61475 12.2108C5.00083 12.8247 4.46161 13.4933 4 14.2049V2H37ZM32.4997 18.4069C32.6626 17.827 32.9712 17.2952 33.4089 16.8576C33.8745 16.392 34.4433 16.0727 35.0634 15.9193V13.9464C33.9241 14.1242 32.8744 14.6532 32.0395 15.4882C31.2334 16.2943 30.71 17.3072 30.5156 18.4069H32.4997ZM32.0395 6.8552C32.8744 7.69006 33.9239 8.22038 35.0634 8.39808V6.42426C34.4433 6.27087 33.8744 5.95137 33.4089 5.48576C32.9712 5.04819 32.6626 4.51645 32.4997 3.93656H30.5156C30.7101 5.03626 31.2334 6.04902 32.0395 6.8552ZM5.93656 8.37907C7.03626 8.18468 8.04915 7.66132 8.85526 6.85513C9.66138 6.04902 10.1847 5.0362 10.3791 3.93656H8.395C8.23206 4.51645 7.92346 5.04819 7.48583 5.48576C7.04819 5.9234 6.51645 6.23207 5.93656 6.39494V8.37907V8.37907Z" fill="white"/>
</g>
<defs>
<filter id="filter0_d" x="0" y="0" width="41" height="36.9735" filterUnits="userSpaceOnUse" color-interpolation-filters="sRGB">
<feFlood flood-opacity="0" result="BackgroundImageFix"/>
<feColorMatrix in="SourceAlpha" type="matrix" values="0 0 0 0 0 0 0 0 0 0 0 0 0 0 0 0 0 0 127 0"/>
<feOffset dy="2"/>
<feGaussianBlur stdDeviation="2"/>
<feColorMatrix type="matrix" values="0 0 0 0 0.270588 0 0 0 0 0.345098 0 0 0 0 0.501961 0 0 0 0.25 0"/>
<feBlend mode="normal" in2="BackgroundImageFix" result="effect1_dropShadow"/>
<feBlend mode="normal" in="SourceGraphic" in2="effect1_dropShadow" result="shape"/>
</filter>
</defs>
</svg>
