<svg width="65" height="65" viewBox="0 0 65 65" fill="none" xmlns="http://www.w3.org/2000/svg">
<g clip-path="url(#clip0)">
<path d="M24.7482 24.0652C21.9428 24.0652 19.0655 23.0092 16.8842 20.9106C14.5988 18.7159 14.0442 15.9452 13.4575 13.0119C12.8068 9.7479 12.1322 6.3719 8.90817 3.27323C8.53484 2.91323 8.40417 2.36656 8.57217 1.87856C8.74284 1.38523 9.18284 1.0359 9.70017 0.987896L10.0655 0.950563C16.6895 0.275896 24.9322 -0.540104 31.4068 5.68123C33.4575 7.64923 34.6975 10.6706 34.7268 13.7559C34.7562 16.6946 33.7242 19.3612 31.8202 21.2599C29.9455 23.1346 27.3802 24.0652 24.7482 24.0652ZM12.5668 3.3879C14.8708 6.4599 15.5028 9.63323 16.0735 12.4919C16.5962 15.1079 17.0468 17.3719 18.7295 18.9906C21.5855 21.7319 26.7695 22.5452 29.9322 19.3799C31.3242 17.9906 32.0788 16.0012 32.0575 13.7852C32.0335 11.3986 31.1002 9.08923 29.5562 7.60656C24.6148 2.85723 18.3695 2.8759 12.5668 3.3879Z" fill="#018D8F"/>
<path d="M48.5454 19.1667C48.3587 19.1667 48.1693 19.1613 47.9827 19.148C45.8173 19.02 43.9373 18.1613 42.6867 16.7293C39.124 12.652 40.3027 7.08135 43.4387 4.25735C48.7267 -0.502653 55.1987 0.345347 60.3933 1.03068L60.6734 1.06801C61.188 1.13468 61.6174 1.49735 61.7747 1.99601C61.9294 2.49468 61.78 3.03601 61.3933 3.38535C58.8813 5.64668 58.284 8.20401 57.708 10.676C57.1933 12.8813 56.6627 15.1613 54.7613 16.8733C53.14 18.3293 50.8493 19.1667 48.5454 19.1667ZM54.1773 3.16401C51.0307 3.16401 47.9027 3.82268 45.22 6.24135C43.0227 8.21735 42.1987 12.1187 44.692 14.972C45.4707 15.8627 46.6947 16.3987 48.14 16.484C49.9213 16.5773 51.74 15.9907 52.9747 14.884C54.2547 13.732 54.6334 12.1133 55.1107 10.0627C55.5774 8.05468 56.1347 5.67335 57.7987 3.39068C56.6067 3.26268 55.388 3.16401 54.1773 3.16401ZM44.3294 5.24935H44.356H44.3294Z" fill="#018D8F"/>
<path d="M36.844 32.66C36.2147 32.66 35.652 32.212 35.5347 31.5693C33.78 22.0893 24.7667 14.284 24.6734 14.2067C24.1134 13.7293 24.0494 12.8867 24.5267 12.3293C25.004 11.7667 25.844 11.6973 26.4067 12.18C26.8067 12.5213 36.228 20.66 38.1587 31.084C38.292 31.8067 37.8147 32.5027 37.0894 32.636C37.0067 32.652 36.9267 32.66 36.844 32.66Z" fill="#018D8F"/>
<path d="M9.83333 59.1667H1.83333C1.09733 59.1667 0.5 58.5693 0.5 57.8333V33.8333C0.5 33.0973 1.09733 32.5 1.83333 32.5C10.9027 32.5 15.6947 35.556 15.8947 35.6867C16.372 35.9987 16.5987 36.58 16.46 37.132L11.1267 58.1613C10.9747 58.7533 10.444 59.1667 9.83333 59.1667ZM3.16667 56.5H8.796L13.62 37.4867C12.1187 36.7693 8.58267 35.3907 3.16667 35.1907V56.5Z" fill="#018D8F"/>
<path d="M35.1667 64.5001C28.8733 64.5001 16.7053 59.2094 10.0093 56.0521C9.34265 55.7401 9.05998 54.9427 9.37198 54.2787C9.68398 53.6094 10.4813 53.3294 11.148 53.6414C16.3747 56.1054 29.1747 61.8334 35.1667 61.8334C41.652 61.8334 56.94 54.2147 61.3373 51.9507C60.644 51.0441 59.212 49.8334 56.5 49.8334C54.0387 49.8334 50.9186 50.8174 47.9 51.7721C44.692 52.7827 41.372 53.8334 38.5 53.8334C32.996 53.8334 25.6867 51.1987 25.3773 51.0867C24.6867 50.8361 24.3293 50.0707 24.58 49.3774C24.8306 48.6867 25.5933 48.3321 26.2893 48.5801C26.3586 48.6067 33.468 51.1667 38.5 51.1667C40.9613 51.1667 44.0813 50.1827 47.1 49.2281C50.308 48.2174 53.628 47.1667 56.5 47.1667C62.7213 47.1667 64.364 51.8787 64.4306 52.0787C64.636 52.6947 64.3693 53.3694 63.7933 53.6787C62.964 54.1161 43.404 64.5001 35.1667 64.5001Z" fill="#018D8F"/>
<path d="M44.4998 52.7399C43.7638 52.7399 43.1665 52.1426 43.1665 51.4066V50.0733C43.1665 48.2119 41.9132 46.6173 40.1158 46.2013L14.3718 39.9853C13.6545 39.8119 13.2145 39.0919 13.3878 38.3746C13.5585 37.6546 14.2918 37.2306 14.9958 37.3906L40.7292 43.6039C43.7318 44.3053 45.8332 46.9666 45.8332 50.0733V51.4066C45.8332 52.1426 45.2358 52.7399 44.4998 52.7399Z" fill="#018D8F"/>
<path d="M36.8465 32.6546C36.8439 32.6546 36.8412 32.6546 36.8385 32.6546C36.1052 32.6493 35.5105 32.0546 35.5132 31.3213C35.5132 30.86 35.6812 19.996 47.8119 12.692C48.4412 12.3133 49.2599 12.5133 49.6412 13.148C50.0225 13.7773 49.8172 14.5986 49.1879 14.98C38.3959 21.4786 38.1852 30.9346 38.1825 31.3346C38.1745 32.0626 37.5799 32.6546 36.8465 32.6546Z" fill="#018D8F"/>
</g>
<defs>
<clipPath id="clip0">
<rect width="64" height="64" fill="white" transform="translate(0.5 0.5)"/>
</clipPath>
</defs>
</svg>
