<svg width="64" height="65" viewBox="0 0 64 65" fill="none" xmlns="http://www.w3.org/2000/svg">
<path d="M61.6521 17.9053L61.6391 17.8923C61.1061 17.4113 60.2872 17.4113 59.7803 17.9183C59.2733 18.4252 59.2733 19.2441 59.7803 19.7511C61.912 21.8828 61.912 25.3404 59.7803 27.4722C57.6485 29.6039 54.1909 29.6039 52.0592 27.4722C52.0332 27.4462 52.0202 27.4332 51.9942 27.4202C50.0444 24.6905 47.5487 22.4028 44.676 20.6999C47.6526 13.6807 44.364 5.58264 37.3448 2.61898C30.3256 -0.34469 22.2275 2.93094 19.2638 9.95015C18.6659 11.38 18.3019 12.9008 18.198 14.4476C16.8201 14.0577 15.7152 13.8757 14.8573 13.9017C13.4795 13.9147 12.4656 14.7726 12.3096 16.0335C12.2186 16.5924 12.2836 17.4113 12.5826 20.076L12.8556 22.6237C10.3598 24.6515 8.39706 27.0172 6.98022 29.6689L3.21064 30.4099C1.33885 30.7868 0 32.4376 0 34.3354V42.6935C0 44.6043 1.33885 46.2421 3.21064 46.619L6.99321 47.3729C7.73413 48.8288 8.64403 50.1936 9.70991 51.4415C8.30607 54.9251 9.34595 58.9157 12.2576 61.2944C13.9864 62.6982 16.1572 63.4651 18.3799 63.4521C20.9146 63.4521 23.3584 62.4902 25.2172 60.7614L26.1271 59.9035C29.4807 60.4105 32.9123 60.2935 36.2269 59.5916L37.5138 60.8264C39.2946 62.5033 41.6603 63.4391 44.104 63.4131H44.377C44.39 63.4131 44.403 63.4131 44.416 63.4131C46.9637 63.3482 49.3815 62.2823 51.1493 60.4365C53.8789 57.5508 54.2039 53.2093 52.0462 49.8037C54.4899 46.3981 55.7767 42.4985 55.7767 38.4689V37.5201C55.7767 37.4941 55.7767 37.4681 55.7767 37.4421C55.6597 35.5053 55.1528 33.5035 54.2689 31.4757C56.9336 32.0477 59.7153 31.2288 61.6391 29.292C64.7847 26.1463 64.7847 21.0509 61.6521 17.9053ZM31.9764 4.11381C38.1507 4.10081 43.1682 9.09225 43.1811 15.2666C43.1941 18.9971 41.3354 22.4937 38.2287 24.5735C38.1247 24.6515 38.0207 24.8075 37.9427 24.8075H26.0621C26.0101 24.8075 25.9451 24.7295 25.8801 24.6775C22.9294 22.7667 21.0576 19.5821 20.7977 16.0855C20.7717 15.7865 20.7717 15.5265 20.7717 15.2926C20.7847 9.13124 25.7891 4.12681 31.9764 4.11381ZM49.5244 48.8418C49.3035 49.1018 48.9655 49.6997 49.3685 50.5056C49.4074 50.5836 49.4464 50.6486 49.4984 50.7136C51.3832 53.1703 51.2792 56.4979 49.2515 58.6427C47.9646 59.9815 46.2228 60.8134 44.338 60.8134H44.091C42.3102 60.8264 40.5944 60.1635 39.2946 58.9417L37.6048 57.3298C37.3058 57.0439 36.9029 56.8879 36.4999 56.9009C36.3959 56.9009 36.3049 56.9139 36.2009 56.9399C32.8603 57.7328 29.4027 57.8368 26.0101 57.2648C25.9321 57.2518 25.8671 57.2518 25.7891 57.2518C25.3731 57.2388 24.9832 57.3948 24.6842 57.6808L23.4104 58.8897C22.1105 60.0985 20.4337 60.7874 18.6659 60.8654C16.9371 60.9564 15.2213 60.3975 13.8694 59.3186C11.7117 57.5508 11.0488 54.5221 12.2836 52.0134C12.4786 51.6885 12.5306 51.2855 12.4266 50.9086C12.3746 50.6746 12.2706 50.4666 12.1146 50.2976C10.8928 48.9588 9.86589 47.4379 9.07298 45.8001C9.00799 45.6701 8.93 45.5532 8.82601 45.4492C8.57904 45.1762 8.25407 45.0072 7.90311 44.9422L3.71758 44.0973C3.06766 43.9673 2.59971 43.3824 2.59971 42.7195V34.3354C2.58671 33.6725 3.05466 33.0876 3.71758 32.9576L7.91611 32.1127C8.26707 32.0477 8.59203 31.8787 8.83901 31.6057C8.943 31.5017 9.02099 31.3977 9.08598 31.2678C10.4118 28.6161 12.3876 26.2503 14.9483 24.2745C14.9873 24.2355 15.0263 24.2096 15.0653 24.1706C15.3643 23.8716 15.5203 23.4686 15.5073 23.0527C15.5073 23.0007 15.5073 22.9617 15.4943 22.9097L15.1563 19.79C15.0393 18.7892 14.8443 16.9824 14.8703 16.4884C14.8833 16.4884 14.9093 16.4884 14.9223 16.4884C15.4423 16.4754 16.4432 16.5664 18.2889 17.1643C18.6789 20.05 19.9788 22.7277 21.9935 24.8205H20.7587C20.0437 24.8205 19.4588 25.4054 19.4588 26.1203C19.4588 26.8353 20.0437 27.4202 20.7587 27.4202H43.2851C44.0001 27.4202 44.585 26.8353 44.585 26.1203C44.585 25.4054 44.0001 24.8205 43.2851 24.8205H41.9333C42.5052 24.2615 43.0122 23.6376 43.4411 22.9617C46.4438 24.7815 48.9135 27.2252 50.6163 30.0329L51.5392 31.8137C52.4881 33.7765 53.034 35.7653 53.164 37.585V38.4819C53.164 42.1865 51.9032 45.7611 49.5244 48.8418Z" fill="#018D8F"/>
<path d="M18.0034 31.9697C16.1576 31.9697 14.6758 33.4646 14.6758 35.2974C14.6758 37.1431 16.1706 38.625 18.0034 38.625C19.8362 38.625 21.331 37.1301 21.331 35.2974C21.344 33.4646 19.8492 31.9697 18.0034 31.9697ZM18.0034 36.0383C17.6005 36.0383 17.2755 35.7133 17.2755 35.3104C17.2755 34.9074 17.6005 34.5824 18.0034 34.5824C18.4064 34.5824 18.7313 34.9074 18.7313 35.3104C18.7443 35.7133 18.4194 36.0383 18.0034 36.0383Z" fill="#018D8F"/>
<path d="M31.9767 7.41553C27.6222 7.41553 24.0996 10.9381 24.0996 15.2926C24.1126 19.6342 27.6352 23.1568 31.9767 23.1698C36.3312 23.1698 39.8538 19.6472 39.8538 15.2926C39.8538 10.9381 36.3312 7.41553 31.9767 7.41553ZM31.9767 20.57C29.0651 20.57 26.6993 18.2043 26.6993 15.2926C26.6993 12.381 29.0651 10.0152 31.9767 10.0152C34.8884 10.0152 37.2541 12.381 37.2541 15.2926C37.2541 18.2043 34.8884 20.57 31.9767 20.57Z" fill="#0635C9"/>
</svg>
