<?xml version="1.0"?>
<svg xmlns="http://www.w3.org/2000/svg" xmlns:xlink="http://www.w3.org/1999/xlink" xmlns:svgjs="http://svgjs.com/svgjs" version="1.1" width="512" height="512" x="0" y="0" viewBox="0 0 448 448" style="enable-background:new 0 0 512 512" xml:space="preserve" class=""><g><path xmlns="http://www.w3.org/2000/svg" d="m282.855469 232.34375 9.328125 23.304688h-46.480469c16.988281-30.476563 26.011719-64.742188 26.242187-99.632813l32.054688-9.617187v10.363281c0 1.710937-.054688 3.414062-.089844 5.125-14.296875 5.078125-23.863281 18.589843-23.910156 33.761719v21.832031c-.003906 5.089843.964844 10.136719 2.855469 14.863281zm-114.855469 55.304688c.007812 8.171874 3.160156 16.027343 8.800781 21.945312-2.96875 2.160156-5.878906 4.398438-8.945312 6.398438l-15.855469 10.144531-15.824219-10.167969c-35.472656-22.742188-62.445312-56.558594-76.726562-96.199219l196.320312-58.898437c-1.09375 33.566406-11 66.25-28.722656 94.777344h-27.046875c-17.671875 0-32 14.328124-32 32zm-163.65625-82.105469c-.0625-.398438-.136719-.800781-.199219-1.183594l31.792969-9.511719c.941406 4.800782 2.085938 9.601563 3.367188 14.289063l-32.25 9.679687c-1.054688-4.59375-1.925782-8.96875-2.710938-13.273437zm-3.6875-32.136719 31.640625-9.496094c.222656 5.019532.589844 10 1.167969 14.945313l-31.570313 9.472656c-.078125-.71875-.140625-1.433594-.222656-2.152344-.40625-4.128906-.777344-8.3125-1.015625-12.769531zm255.34375-93.308594-208 62.398438v-57.207032l104.273438-37.242187 103.726562 29.632813zm0 16.703125v15.296875l-206.910156 62.070313c-.503906-4.96875-.816406-9.972657-.945313-15.007813zm48 17.597657v15.296874l-32 9.601563v-15.296875zm0-16.703126-32 9.601563v-15.296875l32-9.601562zm-252.671875 92.503907 130.175781-39.046875 74.496094-22.351563v15.296875l-201.375 60.414063c-1.265625-4.71875-2.394531-9.480469-3.296875-14.3125zm-51.328125-144.597657 152-45.601562 152 45.601562v20.09375l-32 9.601563v-3.648437c0-3.570313-2.367188-6.707032-5.800781-7.6875l-112-32c-1.605469-.46875-3.316407-.414063-4.886719.152343l-112 40c-3.1875 1.136719-5.3125 4.152344-5.3125 7.535157v67.648437l-32 9.597656zm152 361.070313c-68.90625-35.398437-120.046875-97.789063-141.230469-172.304687l33.335938-10c15.378906 43.304687 44.726562 80.261718 83.414062 105.058593l20.152344 12.949219c2.636719 1.695312 6.019531 1.695312 8.65625 0l20.152344-12.949219.207031-.136719c-2.816406 13.273438 3.148438 26.863282 14.824219 33.773438-4.855469 5.761719-7.515625 13.050781-7.511719 20.585938.015625 1.113281.089844 2.222656.222656 3.328124-10.289062 7.277344-21.054687 13.859376-32.222656 19.695313zm205.601562 40.976563h-133.601562c-8.835938 0-16-7.164063-16-16-.015625-8.308594 6.386719-15.214844 14.671875-15.832032 4.300781-.445312 7.507813-4.164062 7.320313-8.480468-.167969-4.296876-3.699219-7.691407-8-7.6875h-5.992188c-8.835938 0-16-7.164063-16-16 0-8.835938 7.164062-16 16-16 4.417969 0 8-3.582032 8-8 0-4.417969-3.582031-8-8-8h-8c-8.835938 0-16-7.164063-16-16 0-8.835938 7.164062-16 16-16 4.417969 0 8-3.582032 8-8 0-4.417969-3.582031-8-8-8h-8c-8.835938 0-16-7.164063-16-16 0-8.835938 7.164062-16 16-16h104c2.65625 0 5.140625-1.316407 6.628906-3.515626 1.492188-2.199218 1.792969-4.996093.804688-7.460937l-13.714844-34.273437c-1.140625-2.832032-1.722656-5.863282-1.71875-8.917969v-21.832031c0-11.046876 8.953125-20 20-20s20 8.953124 20 20v28c0 1.019531.191406 2.027343.566406 2.976562l16 40c.882813 2.179688 2.675782 3.867188 4.90625 4.613281l42.527344 14.175781v133.953126zm90.398438-32h-32v-128h32zm0 0" fill="#007bff" data-original="#000000" style="" class=""/><path xmlns="http://www.w3.org/2000/svg" d="m404.960938 86.367188-10.9375 11.679687c3.652343 3.417969 7.085937 7.0625 10.28125 10.914063l12.304687-10.234376c-3.621094-4.355468-7.511719-8.484374-11.648437-12.359374zm0 0" fill="#007bff" data-original="#000000" style="" class=""/><path xmlns="http://www.w3.org/2000/svg" d="m448 185.640625c0-3.136719-.105469-6.242187-.320312-9.320313l-15.960938 1.078126c.183594 2.722656.277344 5.46875.28125 8.242187 0 2.261719-.0625 4.519531-.191406 6.75l16 .921875c.128906-2.542969.191406-5.101562.191406-7.671875zm0 0" fill="#007bff" data-original="#000000" style="" class=""/><path xmlns="http://www.w3.org/2000/svg" d="m391.878906 75.558594c-4.585937-3.332032-9.375-6.378906-14.34375-9.117188l-7.71875 14.007813c4.378906 2.398437 8.601563 5.070312 12.648438 8zm0 0" fill="#007bff" data-original="#000000" style="" class=""/><path xmlns="http://www.w3.org/2000/svg" d="m445.792969 210.160156-15.746094-2.863281c-.890625 4.914063-2.09375 9.769531-3.597656 14.535156l15.246093 4.800781c1.710938-5.398437 3.078126-10.902343 4.097657-16.472656zm0 0" fill="#007bff" data-original="#000000" style="" class=""/><path xmlns="http://www.w3.org/2000/svg" d="m362.160156 59.183594c-5.273437-2.09375-10.671875-3.851563-16.167968-5.261719l-4 15.492187c4.84375 1.25 9.605468 2.800782 14.253906 4.640626zm0 0" fill="#007bff" data-original="#000000" style="" class=""/><path xmlns="http://www.w3.org/2000/svg" d="m417 243.769531 14 7.757813c1.601562-2.933594 3.199219-5.941406 4.566406-9.023438l-14.527344-6.6875c-1.226562 2.703125-2.574218 5.355469-4.039062 7.953125zm0 0" fill="#007bff" data-original="#000000" style="" class=""/><path xmlns="http://www.w3.org/2000/svg" d="m413.160156 121.054688c2.6875 4.210937 5.113282 8.582031 7.265625 13.089843l14.445313-6.863281c-2.433594-5.117188-5.183594-10.078125-8.238282-14.847656zm0 0" fill="#007bff" data-original="#000000" style="" class=""/><path xmlns="http://www.w3.org/2000/svg" d="m426 148.039062c1.558594 4.746094 2.820312 9.585938 3.777344 14.488282l15.703125-3.046875c-1.082031-5.566407-2.511719-11.0625-4.289063-16.449219zm0 0" fill="#007bff" data-original="#000000" style="" class=""/><path xmlns="http://www.w3.org/2000/svg" d="m343.886719 136.222656c19.441406 7.699219 32.179687 26.519532 32.113281 47.425782h16c.09375-27.457032-16.640625-52.171876-42.167969-62.28125l-2.855469-1.144532-5.953124 14.847656zm0 0" fill="#007bff" data-original="#000000" style="" class=""/></g></svg>
