<?xml version="1.0"?>
<svg xmlns="http://www.w3.org/2000/svg" xmlns:xlink="http://www.w3.org/1999/xlink" xmlns:svgjs="http://svgjs.com/svgjs" version="1.1" width="512" height="512" x="0" y="0" viewBox="0 0 510.495 510.495" style="enable-background:new 0 0 512 512" xml:space="preserve"><g><g xmlns="http://www.w3.org/2000/svg"><path d="m510.248 248.677c0-21.262-5.622-42.243-16.26-60.68l-93.752-162.384c-12.966-22.441-41.766-30.156-64.198-17.196-22.235 12.838-30.304 41.521-17.195 64.227l45.155 77.847c-13.758.934-26.695 7.84-35.154 19.78-41.956-37.205-105.236-37.205-147.192 0-8.019-11.319-20.641-18.795-35.153-19.78l45.17-77.874c12.959-22.448 5.262-51.225-17.207-64.198-22.434-12.96-51.235-5.247-64.204 17.198l-93.752 162.383c-10.636 18.434-16.258 39.415-16.258 60.677 0 116.259-4.31 91.495 22.978 166.528-13.164 3.17-22.978 15.039-22.978 29.162v34c0 16.542 13.458 30 30 30h162c16.542 0 30-13.458 30-30v-34c0-10.459-5.383-19.68-13.521-25.051 4.554-57.207 4.628-55.696 4.452-63.249 26.596 10.892 56.696 11.239 84.138 0-.177 7.593-.144 5.525 4.452 63.249-8.138 5.371-13.521 14.592-13.521 25.051v34c0 16.542 13.458 30 30 30h162c16.542 0 30-13.458 30-30v-34c0-14.124-9.814-25.991-22.978-29.162 27.273-74.99 22.978-50.108 22.978-166.528zm-480 0c0-16.006 4.233-31.803 12.24-45.68l93.748-162.376c8.665-14.993 31.732-8.855 31.732 8.536 0 6.439 2.929-.52-65.312 117.126-7.004 12.077-6.409 21.836-6.409 31.084v88c0 8.284 6.716 15 15 15s15-6.716 15-15c0-15.14 0-78.36 0-88 0-14.907 18.259-22.787 29.023-12.023 5.276 5.276 4.977 10.87 4.977 15.012.293 79.563-4.298 52.089 20.037 137.252 4.988 17.456 2.788 25.92-1.259 76.759h-124.181l-19.096-52.509c-7.326-20.176-5.5-27.217-5.5-113.181zm162 229.69h-162v-34h162c.02 34.754.1 34 0 34zm112.524-160.921c-29.164 22.581-69.941 22.535-99.047 0-18.592-65.066-15.477-43.863-15.477-112.405 32.377-43.511 97.566-43.586 130 0 0 68.421 3.236 46.917-15.476 112.405zm175.476 160.921h-162v-34h162zm0-147.74c0 20.929-4.971 29.779-24.596 83.74h-124.182c-6.06-76.113-8.251-52.29 14.692-132.582 5.336-18.696 4.086-27.541 4.086-84.418 0-12.348 12.648-20.363 23.655-15.653 6.285 2.681 10.345 8.825 10.345 15.653v88c0 8.284 6.716 15 15 15s15-6.716 15-15v-80c0-15.653 1.209-25.95-6.409-39.085l-63.03-108.665c-4.757-8.237-1.776-18.597 6.234-23.222 8.11-4.688 18.526-1.894 23.215 6.222l93.748 162.377c8.009 13.88 12.242 29.677 12.242 45.683z" fill="#F26A36" data-original="#000000" style=""/><circle cx="255.248" cy="253.367" r="30" fill="#F26A36" data-original="#000000" style=""/></g></g></svg>
