<svg width="60" height="60" viewBox="0 0 60 60" fill="none" xmlns="http://www.w3.org/2000/svg">
<path d="M57.9493 33.7412C51.646 24.0896 52.316 14.1962 49.2776 9.54458C46.2393 4.89291 37.1843 -3.12709 15.7893 10.8479C-5.6057 24.8229 -0.164031 40.0146 3.1793 45.1296C18.826 69.0829 69.1143 50.8346 57.9493 33.7412V33.7412Z" fill="#E5E5E5"/>
<path d="M15 28H46L43.5 32.5L46 36H15L16 32L15 28Z" fill="#64CCE3"/>
<path d="M43.0898 43.7505L44.2684 42.572L46.6254 44.929L45.4469 46.1075L43.0898 43.7505Z" fill="#A4AFC1"/>
<path d="M49.8672 50.5286L51.0457 49.3501L53.4027 51.7071L52.2242 52.8856L49.8672 50.5286Z" fill="#A4AFC1"/>
<path d="M42.7969 51.6921L45.1539 49.3351L46.3324 50.5136L43.9754 52.8706L42.7969 51.6921Z" fill="#A4AFC1"/>
<path d="M49.5713 44.9182L51.9283 42.5612L53.1068 43.7397L50.7498 46.0967L49.5713 44.9182Z" fill="#A4AFC1"/>
<path d="M21.0938 33.3394C21.7086 33.3394 22.207 32.8409 22.207 32.2261C22.207 31.6112 21.7086 31.1128 21.0938 31.1128C20.4789 31.1128 19.9805 31.6112 19.9805 32.2261C19.9805 32.8409 20.4789 33.3394 21.0938 33.3394Z" fill="#1E266D"/>
<path d="M38.9062 33.3394C39.5211 33.3394 40.0195 32.8409 40.0195 32.2261C40.0195 31.6112 39.5211 31.1128 38.9062 31.1128C38.2914 31.1128 37.793 31.6112 37.793 32.2261C37.793 32.8409 38.2914 33.3394 38.9062 33.3394Z" fill="#1E266D"/>
<path d="M48.9152 27.3473C48.7429 26.9314 48.3369 26.6601 47.8867 26.6601H44.4727V16.5664C44.4727 15.9515 43.9742 15.4531 43.3594 15.4531C36.4562 15.4531 30.721 11.2619 30.6648 11.2203C30.2703 10.9266 29.7296 10.9266 29.3352 11.2203C29.2783 11.2626 23.5697 15.4531 16.6406 15.4531C16.0258 15.4531 15.5273 15.9515 15.5273 16.5664V26.6601H12.1133C11.663 26.6601 11.257 26.9314 11.0847 27.3473C10.9125 27.7633 11.0077 28.2422 11.3261 28.5606L14.992 32.2265L11.3261 35.8924C11.0077 36.2108 10.9125 36.6897 11.0847 37.1057C11.2571 37.5217 11.663 37.7929 12.1133 37.7929H17.3653C19.7549 43.0824 24.1934 47.1245 29.6479 48.9427C29.7622 48.9808 29.8811 48.9999 29.9999 48.9999C30.1188 48.9999 30.2377 48.9809 30.352 48.9427C35.8066 47.1246 40.2451 43.0824 42.6346 37.7929H47.8866C48.3369 37.7929 48.7429 37.5216 48.9152 37.1056C49.0874 36.6896 48.9922 36.2108 48.6738 35.8924L45.008 32.2265L48.6739 28.5605C48.9923 28.2422 49.0875 27.7633 48.9152 27.3473ZM17.7539 17.6485C23.5541 17.3252 28.3001 14.5759 29.9999 13.4639C31.6998 14.5759 36.4458 17.3252 42.246 17.6485V26.6601H40.0195V20.5943C40.0195 20.0589 39.6382 19.5992 39.1119 19.5002C35.5041 18.8216 32.4567 17.4222 30.5356 16.3677C30.2019 16.1845 29.7979 16.1845 29.4642 16.3677C27.5431 17.4222 24.4957 18.8216 20.8878 19.5002C20.3616 19.5992 19.9803 20.0589 19.9803 20.5943V26.6601H17.7539V17.6485ZM22.207 26.6602V21.5019C25.39 20.7915 28.1049 19.6019 29.9999 18.6072C31.895 19.6019 34.6099 20.7915 37.7929 21.5019V26.6602H22.207ZM29.9999 46.7091C25.6142 45.1465 21.9957 41.9552 19.8385 37.7929H22.3939C24.1173 40.5903 26.6355 42.8268 29.5448 44.1299C29.6896 44.1947 29.8448 44.2272 29.9999 44.2272C30.1551 44.2272 30.3103 44.1947 30.4551 44.1299C33.3644 42.8268 35.8826 40.5897 37.606 37.7921L40.1614 37.7929C38.0043 41.9552 34.3857 45.1465 29.9999 46.7091V46.7091ZM25.0907 37.7929L34.9093 37.7921C33.5906 39.528 31.9011 40.9417 29.9999 41.8833C28.0988 40.9418 26.4093 39.5288 25.0907 37.7929ZM42.6464 31.4393C42.2116 31.8741 42.2116 32.5789 42.6464 33.0137L45.199 35.5663C41.7587 35.5663 14.801 35.5663 14.801 35.5663L17.3536 33.0136C17.7884 32.5789 17.7884 31.874 17.3536 31.4392L14.801 28.8866H45.199L42.6464 31.4393Z" fill="#1E266D"/>
<path d="M34.4531 31.1128H25.5469C24.932 31.1128 24.4336 31.6112 24.4336 32.2261C24.4336 32.8409 24.932 33.3394 25.5469 33.3394H34.4531C35.068 33.3394 35.5664 32.8409 35.5664 32.2261C35.5664 31.6112 35.068 31.1128 34.4531 31.1128Z" fill="#1E266D"/>
</svg>
