<svg width="33" height="41" viewBox="0 0 33 41" fill="none" xmlns="http://www.w3.org/2000/svg">
<g filter="url(#filter0_d)">
<path d="M27.5802 11.666C26.7961 11.666 26.1605 12.3153 26.1605 13.1162V16.5361C26.1605 17.07 25.7367 17.5029 25.214 17.5029C24.6912 17.5029 24.2675 17.07 24.2675 16.5361V11.1826C24.2675 10.3817 23.6318 9.73242 22.8477 9.73242C22.0636 9.73242 21.428 10.3817 21.428 11.1826V16.5361C21.428 17.07 21.0042 17.5029 20.4815 17.5029C19.9588 17.5029 19.535 17.07 19.535 16.5361V9.24902C19.535 8.44806 18.8993 7.79883 18.1153 7.79883C17.3312 7.79883 16.6955 8.44806 16.6955 9.24902V16.5361C16.6955 17.07 16.2717 17.5029 15.749 17.5029C15.2263 17.5029 14.8025 17.07 14.8025 16.5361V1.4502C14.8025 0.649236 14.1669 0 13.3828 0C12.5987 0 11.963 0.649236 11.963 1.4502V21.9366L7.23006 17.1021C6.49117 16.3474 5.29316 16.3474 4.5542 17.1021C3.81454 17.8576 3.81536 19.0829 4.55609 19.8373C5.62878 20.9299 7.59945 23.3917 8.56613 24.583C13.1009 30.1704 15.3765 32.9745 20.3549 33H20.3808C25.3275 33 29 28.8551 29 23.9684V21.3701C29 18.1903 29 18.5949 29 13.1162C28.9999 12.3153 28.3643 11.666 27.5802 11.666Z" fill="white"/>
</g>
<defs>
<filter id="filter0_d" x="0" y="0" width="33" height="41" filterUnits="userSpaceOnUse" color-interpolation-filters="sRGB">
<feFlood flood-opacity="0" result="BackgroundImageFix"/>
<feColorMatrix in="SourceAlpha" type="matrix" values="0 0 0 0 0 0 0 0 0 0 0 0 0 0 0 0 0 0 127 0"/>
<feOffset dy="4"/>
<feGaussianBlur stdDeviation="2"/>
<feColorMatrix type="matrix" values="0 0 0 0 0.270588 0 0 0 0 0.345098 0 0 0 0 0.501961 0 0 0 0.25 0"/>
<feBlend mode="normal" in2="BackgroundImageFix" result="effect1_dropShadow"/>
<feBlend mode="normal" in="SourceGraphic" in2="effect1_dropShadow" result="shape"/>
</filter>
</defs>
</svg>
