<svg width="21" height="24" viewBox="0 0 21 24" fill="none" xmlns="http://www.w3.org/2000/svg">
<path d="M19.3574 3.92227L11.1074 0.172269C10.8561 0.05854 10.5867 0 10.3146 0C10.0426 0 9.77318 0.05854 9.52188 0.172269L1.27187 3.92227C0.502734 4.26914 0 5.08946 0 5.99883C0 15.3035 4.91992 21.7348 9.51758 23.8254C10.0246 24.0551 10.5961 24.0551 11.1031 23.8254C14.7855 22.152 20.625 16.3723 20.625 5.99883C20.625 5.08946 20.1223 4.26914 19.3574 3.92227ZM10.3168 20.9191L10.3125 3.05977L17.8707 6.49571C17.7289 13.5926 14.343 18.7348 10.3168 20.9191Z" fill="#1943EF"/>
</svg>
