<svg width="22" height="24" viewBox="0 0 22 24" fill="none" xmlns="http://www.w3.org/2000/svg">
<path d="M18.9342 0.589219L19.1061 4.46906C18.1078 3.18433 16.8647 2.15249 15.4635 1.44542C14.0622 0.738351 12.5366 0.373062 10.9927 0.375C5.78918 0.375 1.45707 4.44938 0.528086 9.83531C0.514343 9.91646 0.517137 9.99992 0.536268 10.0798C0.5554 10.1596 0.5904 10.2339 0.638788 10.2973C0.687175 10.3607 0.747764 10.4118 0.816258 10.4468C0.884751 10.4818 0.959471 10.5 1.03512 10.5H3.14273C3.25892 10.4999 3.37166 10.4569 3.46268 10.3781C3.55369 10.2993 3.61765 10.1893 3.64418 10.0659C3.9879 8.50977 4.73939 7.09637 5.80695 5.99822C6.87451 4.90006 8.21199 4.16462 9.6562 3.88163C11.1004 3.59863 12.5889 3.78032 13.94 4.40453C15.2912 5.02874 16.4466 6.06847 17.2653 7.39688L12.9057 7.16906C12.8359 7.16544 12.7662 7.17732 12.7008 7.20396C12.6354 7.2306 12.5756 7.27146 12.5251 7.32406C12.4746 7.37666 12.4344 7.4399 12.407 7.50995C12.3796 7.58 12.3655 7.65539 12.3655 7.73156V9.95391C12.3655 10.1031 12.4199 10.2462 12.5166 10.3517C12.6133 10.4571 12.7444 10.5164 12.8812 10.5164H21.4844C21.6211 10.5164 21.7523 10.4571 21.849 10.3517C21.9457 10.2462 22 10.1031 22 9.95391V0.5625C22 0.413316 21.9457 0.270242 21.849 0.164752C21.7523 0.0592632 21.6211 0 21.4844 0L19.4489 0C19.3792 4.09301e-05 19.3102 0.0155201 19.2461 0.0455008C19.182 0.0754815 19.1241 0.11934 19.076 0.174423C19.0278 0.229506 18.9905 0.294668 18.9661 0.365965C18.9417 0.437262 18.9309 0.513212 18.9342 0.589219ZM10.9927 20.25C9.75285 20.2512 8.53185 19.919 7.43766 19.2829C6.34347 18.6469 5.40982 17.7265 4.71926 16.6031L9.09348 16.8314C9.16322 16.835 9.23291 16.8232 9.29833 16.7965C9.36374 16.7699 9.42351 16.729 9.47402 16.6764C9.52452 16.6238 9.56471 16.5606 9.59214 16.4905C9.61957 16.4205 9.63367 16.3451 9.63359 16.2689V14.047C9.63359 13.8978 9.57927 13.7548 9.48257 13.6493C9.38587 13.5438 9.25472 13.4845 9.11797 13.4845H0.515625C0.378873 13.4845 0.247722 13.5438 0.151023 13.6493C0.0543246 13.7548 0 13.8978 0 14.047L0 23.4375C0 23.5867 0.0543246 23.7298 0.151023 23.8352C0.247722 23.9407 0.378873 24 0.515625 24H2.5502C2.62013 24.0001 2.68936 23.9847 2.75366 23.9547C2.81796 23.9246 2.87599 23.8807 2.92422 23.8254C2.97246 23.7702 3.00988 23.7048 3.03423 23.6333C3.05857 23.5618 3.06932 23.4856 3.06582 23.4094L2.8875 19.5389C3.88562 20.821 5.12768 21.8507 6.52736 22.5563C7.92704 23.2619 9.45078 23.6266 10.9927 23.625C16.1966 23.625 20.5287 19.5506 21.4577 14.1647C21.4715 14.0835 21.4687 14.0001 21.4496 13.9202C21.4304 13.8404 21.3954 13.7661 21.347 13.7027C21.2986 13.6393 21.2381 13.5882 21.1696 13.5532C21.1011 13.5182 21.0264 13.5 20.9507 13.5H18.8431C18.7269 13.5001 18.6142 13.5431 18.5231 13.6219C18.4321 13.7007 18.3682 13.8107 18.3416 13.9341C17.9448 15.7342 17.004 17.3362 15.6709 18.4819C14.3377 19.6277 12.6899 20.2505 10.9927 20.25Z" fill="#F26A36"/>
</svg>
