<?xml version="1.0"?>
<svg xmlns="http://www.w3.org/2000/svg" xmlns:xlink="http://www.w3.org/1999/xlink" xmlns:svgjs="http://svgjs.com/svgjs" version="1.1" width="512" height="512" x="0" y="0" viewBox="0 0 512 512" style="enable-background:new 0 0 512 512" xml:space="preserve"><g><path xmlns="http://www.w3.org/2000/svg" d="m76.75 361.003906-61.371094 61.375c-9.917968 9.914063-15.378906 23.097656-15.378906 37.121094s5.460938 27.207031 15.378906 37.121094c9.914063 9.917968 23.097656 15.378906 37.121094 15.378906s27.207031-5.460938 37.121094-15.378906l61.375-61.371094zm0 0" fill="#F26A36" data-original="#000000" style=""/><path xmlns="http://www.w3.org/2000/svg" d="m157.902344 354.097656c-12.667969-12.664062-23.625-26.582031-32.785156-41.460937l-27.15625 27.15625 74.246093 74.246093 27.160157-27.15625c-14.882813-9.160156-28.800782-20.117187-41.464844-32.785156zm0 0" fill="#F26A36" data-original="#000000" style=""/><path xmlns="http://www.w3.org/2000/svg" d="m317 60c-74.4375 0-135 60.5625-135 135s60.5625 135 135 135 135-60.5625 135-135-60.5625-135-135-135zm0 0" fill="#F26A36" data-original="#000000" style=""/><path xmlns="http://www.w3.org/2000/svg" d="m317 0c-107.695312 0-195 87.304688-195 195s87.304688 195 195 195 195-87.304688 195-195-87.304688-195-195-195zm0 360c-90.980469 0-165-74.019531-165-165s74.019531-165 165-165 165 74.019531 165 165-74.019531 165-165 165zm0 0" fill="#F26A36" data-original="#000000" style=""/></g></svg>
