<svg width="17" height="14" viewBox="0 0 17 14" fill="none" xmlns="http://www.w3.org/2000/svg">
<g clip-path="url(#clip0)">
<path d="M13.1104 6.125C11.0064 6.125 9.30416 7.88594 9.30416 10.0625C9.30416 12.2391 11.0064 14 13.1104 14C15.2144 14 16.9167 12.2391 16.9167 10.0625C16.9167 7.88594 15.2144 6.125 13.1104 6.125ZM14.8021 10.2348C14.8021 10.3797 14.6858 10.5 14.5457 10.5H12.9439C12.8038 10.5 12.6875 10.3797 12.6875 10.2348V8.14023C12.6875 7.99531 12.8038 7.875 12.9439 7.875H13.2769C13.417 7.875 13.5333 7.99531 13.5333 8.14023V9.625H14.5457C14.6858 9.625 14.8021 9.74531 14.8021 9.89023V10.2348ZM8.45833 10.0625C8.45833 9.30234 8.63543 8.5832 8.9394 7.94336C8.72794 7.90234 8.5112 7.875 8.28916 7.875H7.84775C7.26095 8.15391 6.60807 8.3125 5.92083 8.3125C5.23359 8.3125 4.58336 8.15391 3.99392 7.875H3.5525C1.59122 7.875 0 9.52109 0 11.55V12.6875C0 13.4121 0.568294 14 1.26875 14H10.4434C9.24601 13.1277 8.45833 11.6895 8.45833 10.0625ZM5.92083 7C7.78959 7 9.30416 5.4332 9.30416 3.5C9.30416 1.5668 7.78959 0 5.92083 0C4.05207 0 2.5375 1.5668 2.5375 3.5C2.5375 5.4332 4.05207 7 5.92083 7Z" fill="#30A971"/>
</g>
<defs>
<clipPath id="clip0">
<rect width="16.9167" height="14" fill="white"/>
</clipPath>
</defs>
</svg>
