<svg width="32" height="25" viewBox="0 0 32 25" fill="none" xmlns="http://www.w3.org/2000/svg">
<g clip-path="url(#clip0)">
<path d="M11.7992 12.2686C15.2238 12.2686 17.9992 9.58262 17.9992 6.26855C17.9992 2.95449 15.2238 0.268555 11.7992 0.268555C8.37469 0.268555 5.59922 2.95449 5.59922 6.26855C5.59922 9.58262 8.37469 12.2686 11.7992 12.2686ZM16.1392 13.7686H15.3303C14.255 14.2467 13.0586 14.5186 11.7992 14.5186C10.5398 14.5186 9.34828 14.2467 8.26813 13.7686H7.45922C3.86516 13.7686 0.949219 16.5904 0.949219 20.0686V22.0186C0.949219 23.2607 1.99063 24.2686 3.27422 24.2686H20.3242C21.6078 24.2686 22.6492 23.2607 22.6492 22.0186V20.0686C22.6492 16.5904 19.7333 13.7686 16.1392 13.7686ZM31.7845 7.7498L30.438 6.43262C30.2152 6.2123 29.8519 6.2123 29.6242 6.42793L24.548 11.3029L22.3441 9.15605C22.1213 8.93574 21.758 8.93574 21.5303 9.15137L20.1692 10.4592C19.9416 10.6748 19.9416 11.0264 20.1644 11.2467L24.1217 15.1045C24.3445 15.3248 24.7078 15.3248 24.9355 15.1092L31.7797 8.5373C32.0025 8.31699 32.0073 7.96543 31.7845 7.7498V7.7498Z" fill="#F26A36"/>
</g>
<defs>
<clipPath id="clip0">
<rect width="31" height="24" fill="white" transform="translate(0.949219 0.268555)"/>
</clipPath>
</defs>
</svg>
