<svg width="35" height="36" viewBox="0 0 35 36" fill="none" xmlns="http://www.w3.org/2000/svg">
<g filter="url(#filter0_d)">
<path d="M26.6917 19.4763L21.404 18.361V16.8467C21.6809 16.4593 21.9386 15.9647 22.2058 15.4513C22.4057 15.0687 22.7067 14.49 22.8319 14.3523C23.6915 13.538 24.6065 12.5277 24.8906 11.1883C25.1747 9.856 24.816 9.17233 24.6089 8.904C24.6089 7.966 24.6089 6.25567 24.2718 5.00033C24.2333 3.486 23.9275 2.58533 23.1931 1.81067C22.6417 1.232 21.8639 1.106 21.2403 1.00333C21.038 0.970666 20.7346 0.921666 20.6431 0.877333C19.5909 0.310333 18.5218 0.0326667 17.1975 0C14.5248 0.098 11.2404 1.74767 10.14 4.70633C9.82703 5.54633 9.82703 6.80167 9.85592 8.239L9.85351 8.80833C9.66088 9.17467 9.30211 9.85833 9.58624 11.1883C9.87037 12.53 10.7854 13.5403 11.6377 14.3477C11.7726 14.4947 12.0808 15.0757 12.283 15.4607C12.5527 15.9717 12.8104 16.464 13.0873 16.849V18.3633L7.79961 19.4787C5.59641 19.936 4 21.854 4 24.0357V26.8333C4 27.4773 4.53936 28 5.20393 28H29.2826C29.9471 28 30.4865 27.4773 30.4865 26.8333V24.0357C30.4865 21.854 28.8901 19.936 26.6917 19.4763Z" fill="white"/>
</g>
<defs>
<filter id="filter0_d" x="0" y="0" width="34.4865" height="36" filterUnits="userSpaceOnUse" color-interpolation-filters="sRGB">
<feFlood flood-opacity="0" result="BackgroundImageFix"/>
<feColorMatrix in="SourceAlpha" type="matrix" values="0 0 0 0 0 0 0 0 0 0 0 0 0 0 0 0 0 0 127 0"/>
<feOffset dy="4"/>
<feGaussianBlur stdDeviation="2"/>
<feColorMatrix type="matrix" values="0 0 0 0 0.270588 0 0 0 0 0.345098 0 0 0 0 0.501961 0 0 0 0.25 0"/>
<feBlend mode="normal" in2="BackgroundImageFix" result="effect1_dropShadow"/>
<feBlend mode="normal" in="SourceGraphic" in2="effect1_dropShadow" result="shape"/>
</filter>
</defs>
</svg>
