<svg width="17" height="16" viewBox="0 0 17 16" fill="none" xmlns="http://www.w3.org/2000/svg">
<path d="M3.75206 16H0.276877V5.31762H3.75206V16ZM2.0126 3.86044C0.901347 3.86044 0 2.98185 0 1.92111C7.95385e-09 1.4116 0.212041 0.92296 0.589476 0.562681C0.966911 0.202403 1.47882 0 2.0126 0C2.54637 0 3.05828 0.202403 3.43572 0.562681C3.81315 0.92296 4.02519 1.4116 4.02519 1.92111C4.02519 2.98185 3.12347 3.86044 2.0126 3.86044ZM16.7585 16H13.2908V10.7999C13.2908 9.56057 13.2647 7.97125 11.484 7.97125C9.67722 7.97125 9.40035 9.31771 9.40035 10.7106V16H5.92891V5.31762H9.26191V6.77479H9.31055C9.7745 5.93549 10.9078 5.04976 12.5986 5.04976C16.1157 5.04976 16.7623 7.26052 16.7623 10.132V16H16.7585Z" fill="#30A971"/>
</svg>
