<svg width="64" height="64" viewBox="0 0 64 64" fill="none" xmlns="http://www.w3.org/2000/svg">
<g clip-path="url(#clip0)">
<path d="M17.0366 17.7819C17.0366 10.4963 22.9422 4.59063 30.2279 4.59063C30.6554 4.59063 31.0689 4.61809 31.4825 4.64556C27.0592 1.17637 20.9241 0.889917 16.1971 3.93266C11.4707 6.9754 9.19039 12.6786 10.5171 18.1411C11.8438 23.6036 16.4857 27.6258 22.0812 28.1615C18.8958 25.6594 17.0355 21.8326 17.0366 17.7819Z" fill="#D4E1F4"/>
<path d="M30.2143 37.0107C31.7709 37.0091 33.3232 37.1707 34.846 37.4932C31.3832 35.3566 27.3907 34.2345 23.3222 34.2539C11.1787 34.2814 1.35053 43.9717 1.37799 57.163L8.40789 57.149C9.66246 45.3916 18.9393 37.0382 30.2143 37.0107Z" fill="#D4E1F4"/>
<path d="M39.1878 52.4624C39.1878 47.4199 41.9419 42.7791 46.3685 40.3636C50.795 37.9476 56.188 38.142 60.4294 40.8703C57.5982 36.4723 52.5229 34.0552 47.3247 34.6292C42.1261 35.2032 37.7006 38.6697 35.8974 43.5786C34.0941 48.4882 35.2243 53.9948 38.8157 57.7973C39.5798 58.6071 40.4408 59.3206 41.3793 59.9199C39.9432 57.6982 39.1819 55.1078 39.1878 52.4624Z" fill="#D4E1F4"/>
<path d="M23.3363 29.5948C31.3828 29.5948 37.906 23.0715 37.906 15.025C37.906 6.97802 31.3828 0.455322 23.3363 0.455322C15.2898 0.455322 8.7666 6.97802 8.7666 15.025C8.77414 23.0683 15.2925 29.5872 23.3363 29.5948ZM23.3363 3.21215C29.8606 3.21215 35.1492 8.50073 35.1492 15.025C35.1492 21.5494 29.8606 26.8379 23.3363 26.8379C16.812 26.8379 11.5234 21.5494 11.5234 15.025C11.531 8.50396 16.8152 3.21969 23.3363 3.21215Z" fill="#018D8F"/>
<path d="M23.3227 35.6323H23.3642C28.6231 35.6048 33.6861 37.6272 37.4794 41.2698L39.3952 39.2851C35.0866 35.1477 29.3377 32.8486 23.3642 32.8755H23.3227C17.01 32.8889 11.1517 35.3426 6.80974 39.809C2.39882 44.3163 -0.013405 50.4777 5.60346e-05 57.163C0.00274824 57.5286 0.145974 57.8792 0.400119 58.1419C0.65911 58.4009 1.01179 58.5452 1.37847 58.5415L38.0443 58.4725V55.7157L2.79834 55.7846C3.08803 50.3673 5.18311 45.4191 8.78044 41.7388C12.5991 37.8103 17.7681 35.6458 23.3227 35.6323Z" fill="#018D8F"/>
<path d="M54.4195 46.9488H50.2154V42.7446C50.2154 41.9838 49.5983 41.3662 48.837 41.3662C48.0756 41.3662 47.4586 41.9838 47.4586 42.7446V46.9488H43.2544C42.493 46.9488 41.876 47.5664 41.876 48.3272C41.876 49.0886 42.493 49.7056 43.2544 49.7056H47.4586V53.9098C47.4586 54.6711 48.0756 55.2882 48.837 55.2882C49.5983 55.2882 50.2154 54.6711 50.2154 53.9098V49.7056H54.4195C55.1809 49.7056 55.798 49.0886 55.798 48.3272C55.798 47.5664 55.1809 46.9488 54.4195 46.9488Z" fill="#0635C9"/>
<path d="M48.8374 33.1647C40.4635 33.1647 33.6748 39.9534 33.6748 48.3273C33.6748 56.7017 40.4635 63.4899 48.8374 63.4899C57.2112 63.4899 63.9999 56.7017 63.9999 48.3273C64.0204 44.2998 62.4298 40.431 59.5814 37.5832C56.7336 34.7354 52.8649 33.1443 48.8374 33.1647ZM48.8374 60.733C41.9857 60.733 36.4316 55.179 36.4316 48.3273C36.4316 41.4762 41.9857 35.9216 48.8374 35.9216C55.689 35.9216 61.2431 41.4762 61.2431 48.3273C61.2431 55.179 55.689 60.733 48.8374 60.733Z" fill="#018D8F"/>
</g>
<defs>
<clipPath id="clip0">
<rect width="64" height="64" fill="white"/>
</clipPath>
</defs>
</svg>
