<svg width="15" height="14" viewBox="0 0 15 14" fill="none" xmlns="http://www.w3.org/2000/svg">
<path d="M8.32274 0.902216L7.60537 0.217457C7.30162 -0.0724857 6.81045 -0.0724857 6.50993 0.217457L0.228134 6.21064C-0.0756159 6.50058 -0.0756159 6.96942 0.228134 7.25628L6.50993 13.2525C6.81368 13.5425 7.30485 13.5425 7.60537 13.2525L8.32274 12.5678C8.62972 12.2748 8.62326 11.7967 8.30981 11.5098L4.416 7.9688H13.703C14.1328 7.9688 14.4785 7.63876 14.4785 7.22852V6.24148C14.4785 5.83124 14.1328 5.5012 13.703 5.5012H4.416L8.30981 1.9602C8.62649 1.67334 8.63295 1.19524 8.32274 0.902216Z" fill="#183B56"/>
</svg>
