<svg width="33" height="33" viewBox="0 0 33 33" fill="none" xmlns="http://www.w3.org/2000/svg">
<path d="M33 25.0078C33 21.2148 30.3568 18.0412 26.8125 17.2227C26.2321 17.0888 25.6288 17.0156 25.0078 17.0156C24.8343 17.0156 24.6628 17.0231 24.4922 17.0339C20.619 17.2809 17.4972 20.2849 17.0677 24.1055C17.0344 24.4017 17.0156 24.7025 17.0156 25.0078C17.0156 25.5827 17.0777 26.143 17.193 26.6836C17.9634 30.2927 21.1687 33 25.0078 33C29.4218 33 33 29.4218 33 25.0078ZM25.0078 30.293C22.0888 30.293 19.7226 27.9267 19.7226 25.0078C19.7226 22.0889 22.0888 19.7226 25.0078 19.7226C27.9267 19.7226 30.293 22.0889 30.293 25.0078C30.293 27.9267 27.9267 30.293 25.0078 30.293Z" fill="#01D066"/>
<path d="M26.039 21.3987H24.2344V24.2346H21.3984V26.0393H26.039V24.2346V21.3987Z" fill="#01D066"/>
<path d="M5.92967 0C5.43208 0 5.02734 0.404789 5.02734 0.902323V2.96482V5.15625C5.02734 5.65384 5.43208 6.05857 5.92967 6.05857H6.70312C7.20071 6.05857 7.60544 5.65378 7.60544 5.15625V2.96482V0.902323C7.60544 0.404789 7.20071 0 6.70306 0H5.92967Z" fill="#01D066"/>
<path d="M20.1094 0C19.6118 0 19.207 0.404789 19.207 0.902323V2.96482V5.15625C19.207 5.65384 19.6118 6.05857 20.1094 6.05857H20.8828C21.3804 6.05857 21.7851 5.65378 21.7851 5.15625V2.96482V0.902323C21.7851 0.404789 21.3803 0 20.8828 0H20.1094Z" fill="#01D066"/>
<path d="M2.0625 26.6837H14.8242C14.6984 26.0582 14.6316 25.4119 14.6316 24.7501C14.6316 24.5333 14.6412 24.3188 14.6551 24.1056H3.8672C3.01281 24.1056 2.3203 23.4131 2.3203 22.5587V10.1837H24.4922V14.9669C24.6629 14.9581 24.8348 14.9533 25.0078 14.9533C25.6245 14.9533 26.227 15.0131 26.8125 15.1226V5.02744C26.8125 3.8884 25.889 2.96494 24.75 2.96494H23.0742V5.15636C23.0742 6.36474 22.0912 7.34779 20.8828 7.34779H20.1093C18.901 7.34779 17.9179 6.36474 17.9179 5.15636V2.96494H8.89452V5.15636C8.89452 6.36474 7.91148 7.34779 6.7031 7.34779H5.92965C4.72126 7.34779 3.73822 6.36474 3.73822 5.15636V2.96494H2.0625C0.923461 2.96494 0 3.88845 0 5.02744V24.6212C0 25.7602 0.923461 26.6837 2.0625 26.6837Z" fill="#01D066"/>
<path d="M7.26725 16.0973C8.39753 16.0973 9.3138 15.181 9.3138 14.0508C9.3138 12.9205 8.39753 12.0042 7.26725 12.0042C6.13697 12.0042 5.2207 12.9205 5.2207 14.0508C5.2207 15.181 6.13697 16.0973 7.26725 16.0973Z" fill="#01D066"/>
<path d="M13.4063 16.0973C14.5366 16.0973 15.4528 15.181 15.4528 14.0508C15.4528 12.9205 14.5366 12.0042 13.4063 12.0042C12.276 12.0042 11.3597 12.9205 11.3597 14.0508C11.3597 15.181 12.276 16.0973 13.4063 16.0973Z" fill="#01D066"/>
<path d="M19.5453 16.0973C20.6756 16.0973 21.5919 15.181 21.5919 14.0508C21.5919 12.9205 20.6756 12.0042 19.5453 12.0042C18.415 12.0042 17.4988 12.9205 17.4988 14.0508C17.4988 15.181 18.415 16.0973 19.5453 16.0973Z" fill="#01D066"/>
<path d="M13.4062 22.2848C14.5365 22.2848 15.4527 21.3685 15.4527 20.2383C15.4527 19.1081 14.5365 18.1918 13.4062 18.1918C12.276 18.1918 11.3597 19.1081 11.3597 20.2383C11.3597 21.3685 12.276 22.2848 13.4062 22.2848Z" fill="#01D066"/>
<path d="M7.26719 22.2848C8.39743 22.2848 9.31367 21.3685 9.31367 20.2383C9.31367 19.1081 8.39743 18.1918 7.26719 18.1918C6.13695 18.1918 5.2207 19.1081 5.2207 20.2383C5.2207 21.3685 6.13695 22.2848 7.26719 22.2848Z" fill="#01D066"/>
</svg>
