<svg width="417" height="398" viewBox="0 0 417 398" fill="none" xmlns="http://www.w3.org/2000/svg">
<path d="M278.384 106.379C276.428 106.097 274.465 106.985 273.523 108.608C271.343 112.364 260.496 122.661 249.539 133.721C247.469 135.809 248.632 139.211 251.434 140.271L276.62 148.674C278.586 149.418 280.738 148.731 282.152 147.234C286.594 142.532 308.535 122.656 311.398 116.632C312.634 114.025 310.957 111.067 307.934 110.633L278.384 106.379Z" fill="#48EFA2"/>
<path d="M160.422 53.005L158.595 54.2697C156.982 55.3872 154.777 55.0589 153.558 53.5177L127.68 20.7773C126.352 19.0973 126.713 16.6457 128.468 15.4194L139.278 7.87077C141.207 6.52428 143.888 7.28455 144.822 9.44307L161.718 48.4673C162.424 50.0956 161.881 51.9951 160.422 53.005Z" fill="#09864C"/>
<path d="M260.254 66.3L253.473 62.593C251.466 61.4961 250.959 58.8415 252.421 57.0817L272.153 33.3317C273.36 31.8786 275.48 31.5927 277.028 32.6751L288.133 40.4309C290.108 41.8105 290.218 44.6951 288.354 46.2218L264.3 65.9229C263.154 66.8613 261.554 67.0105 260.254 66.3Z" fill="#48EFA2"/>
<path d="M228.906 45.8831C234.625 47.8127 239.796 50.4477 244.437 53.7632L270.662 22.9338C263.297 16.7762 254.937 11.7383 245.545 7.86353C234.034 3.127 221.484 0.74992 207.901 0.74992C192.097 0.74992 178.227 3.69357 166.307 9.58083C162.07 11.672 158.1 13.9911 154.371 16.5163L174.008 52.8082C183.618 45.9121 194.914 42.4496 207.901 42.4496C215.109 42.4496 222.109 43.5993 228.906 45.8831Z" fill="#30A971"/>
<path d="M242.912 143.775L243.271 142.803C242.625 142.564 241.954 142.448 241.29 142.448C239.626 142.447 237.997 143.178 236.903 144.531C234.045 148.06 230.927 151.444 227.539 154.679C221.205 160.729 214.474 166.57 207.352 172.21C204.645 174.352 201.996 176.592 199.397 178.913C198.132 180.042 197.509 181.599 197.512 183.131C197.509 184.949 198.385 186.779 200.063 187.891L223.944 203.745C224.899 204.379 225.994 204.692 227.081 204.692C228.46 204.692 229.834 204.19 230.914 203.217C235.374 199.208 240.01 195.286 244.838 191.467C252.026 185.776 258.861 179.474 265.34 172.548C268.438 169.238 271.335 165.656 274.039 161.815C274.745 160.811 275.081 159.661 275.08 158.539C275.084 156.262 273.707 154.051 271.356 153.181L243.271 142.803L242.912 143.775L242.553 144.746L270.638 155.124C272.139 155.678 273.005 157.078 273.008 158.539C273.007 159.254 272.8 159.973 272.344 160.624C269.693 164.391 266.857 167.897 263.827 171.133C257.416 177.986 250.658 184.217 243.552 189.843C238.69 193.69 234.021 197.639 229.529 201.677C228.834 202.301 227.959 202.619 227.081 202.62C226.389 202.619 225.7 202.424 225.09 202.019L201.208 186.165C200.134 185.452 199.585 184.301 199.583 183.131C199.585 182.147 199.97 181.181 200.777 180.458C203.348 178.161 205.966 175.949 208.639 173.835C215.808 168.157 222.587 162.274 228.971 156.177C232.421 152.882 235.599 149.432 238.512 145.834C239.201 144.984 240.227 144.521 241.29 144.52C241.713 144.52 242.139 144.593 242.553 144.746L242.912 143.775Z" fill="#30A971"/>
<path d="M349.166 381.113C311.926 381.113 281.74 378.353 281.74 374.951C281.74 371.547 311.926 368.787 349.166 368.787C386.403 368.787 416.588 371.547 416.588 374.951C416.588 378.353 386.403 381.113 349.166 381.113Z" fill="#F6FAFD"/>
<path d="M394.011 375.983L370.403 128.992L373.877 128.66L397.485 375.651L394.011 375.983Z" fill="#D8E5F6"/>
<path d="M303.371 375.983L299.897 375.651L323.504 128.66L326.978 128.992L303.371 375.983Z" fill="#D8E5F6"/>
<path d="M388.826 305.139H308.556V301.648H388.826V305.139Z" fill="#D8E5F6"/>
<path d="M393.857 357.77H304.472V354.28H393.857V357.77Z" fill="#D8E5F6"/>
<path d="M322.174 130.31H375.207C376.901 130.31 378.273 128.938 378.273 127.244C378.273 125.552 376.901 124.179 375.207 124.179H322.174C320.481 124.179 319.108 125.552 319.108 127.244C319.108 128.938 320.481 130.31 322.174 130.31Z" fill="#A0BBE6"/>
<path d="M113.796 347.259H19.8086V323.785H113.796V347.259Z" fill="#EDF4FB"/>
<path d="M113.796 327.207H19.8086V323.786H113.796V327.207Z" fill="#C3D2EE"/>
<path d="M104.733 376.979H10.7461V347.259H104.733V376.979Z" fill="#EDF4FB"/>
<path d="M111.36 350.681H10.7461V347.259H111.36V350.681Z" fill="#C3D2EE"/>
<path d="M95.0218 397.25L0 396.248V376.29H104.733L95.0218 397.25Z" fill="#EDF4FB"/>
<path d="M104.733 379.714H0V376.291H104.733V379.714Z" fill="#C3D2EE"/>
<path d="M109.871 323.786V347.259L104.983 350.681V372.22L95.0215 379.376V397.25L116.959 377.441V323.786H109.871Z" fill="#C3D2EE"/>
<path d="M136.917 44.4703C129.176 53.6896 123.31 63.8577 119.35 74.9859C115.326 86.2694 113.039 97.3065 112.487 108.099C112.206 111.044 113.039 113.58 114.982 115.704C116.919 117.834 119.141 118.893 121.637 118.893H139.522C141.739 118.893 143.955 117.996 146.177 116.195C148.393 114.401 149.778 111.702 150.337 108.099C152.993 95.1169 157.147 84.5874 162.794 76.5053L136.917 44.4703Z" fill="white"/>
<path d="M136.918 44.4703L136.124 43.8043C128.307 53.1126 122.376 63.3936 118.374 74.6378C114.32 86.0052 112.011 97.1438 111.452 108.046L112.487 108.099L111.455 108.002C111.417 108.404 111.398 108.8 111.398 109.192C111.39 111.913 112.358 114.382 114.218 116.403L114.216 116.401C115.259 117.548 116.405 118.435 117.653 119.031C118.899 119.629 120.243 119.929 121.637 119.928H139.522C142.027 119.929 144.484 118.905 146.83 116.998L146.829 116.999C149.287 115.014 150.78 112.032 151.361 108.259L150.338 108.099L151.352 108.307C153.988 95.4234 158.101 85.0275 163.643 77.0988L164.089 76.4597L136.933 42.841L136.124 43.8043L136.918 44.4703L136.112 45.1218L161.988 77.1557L162.794 76.5053L161.945 75.9118C156.192 84.1471 152 94.8102 149.323 107.892L149.318 107.917L149.313 107.941C148.776 111.372 147.5 113.786 145.526 115.389L145.525 115.39C143.426 117.086 141.451 117.855 139.522 117.857H121.637C120.535 117.856 119.52 117.627 118.547 117.163C117.575 116.698 116.643 115.989 115.749 115.007L115.747 115.005V115.004C114.21 113.313 113.477 111.438 113.47 109.192C113.47 108.869 113.486 108.537 113.518 108.197L113.52 108.175L113.521 108.152C114.068 97.47 116.332 86.5324 120.326 75.3328C124.245 64.3227 130.045 54.2654 137.711 45.1363L136.918 44.4703L136.112 45.1218L136.918 44.4703Z" fill="#30A971"/>
<path d="M57.4955 307.891C57.4955 307.891 56.6825 317.221 56.5882 318.494C56.4939 319.767 52.4397 319.861 51.9683 319.201C51.4961 318.54 50.375 307.891 50.375 307.891" fill="#32DFFF"/>
<path d="M50.8965 320.324C50.8965 321.651 51.2659 323.812 51.2659 323.812H55.9388L56.1687 323.032C56.1687 323.032 57.683 323.812 58.8731 323.812H62.8172C65.7039 323.812 67.3435 323.445 67.416 322.937C67.7205 320.814 64.2725 320.91 63.3745 320.91C60.7954 320.91 58.0041 319.704 57.395 318.394C56.9538 317.445 57.1496 317.204 56.6162 317.382C56.6162 317.382 56.1356 317.485 55.8145 318.073C55.3235 318.975 54.3903 319.58 53.3787 319.402C52.7997 319.3 52.2192 319.08 51.7992 318.641C51.7992 318.641 50.8965 318.996 50.8965 320.324Z" fill="#29409D"/>
<path d="M75.4915 306.584C75.4915 306.584 72.3376 314.302 71.7783 315.45C71.219 316.598 67.4178 315.183 67.2251 314.396C67.0314 313.607 68.2412 304.399 68.2412 304.399" fill="#32DFFF"/>
<path d="M65.8139 315.042C65.322 316.274 64.5928 318.663 64.5928 318.663L68.1351 320.775L68.8301 320.251C68.8301 320.251 69.611 321.518 70.6934 322.198C71.4971 322.702 73.2745 323.44 74.1994 323.651C77.4352 324.391 79.9344 324.032 80.1903 323.587C81.2602 321.728 76.9722 320.706 76.1373 320.374C73.7427 319.419 72.6448 317.097 72.565 315.656C72.507 314.611 72.7773 314.46 72.2149 314.427C72.2149 314.427 71.7312 314.345 71.2154 314.773C70.4241 315.428 69.3345 315.645 68.4603 315.105C67.96 314.796 67.5033 314.376 67.2754 313.813C67.2754 313.813 66.3049 313.809 65.8139 315.042Z" fill="#29409D"/>
<path d="M48.2537 197.436C46.575 196.195 44.7446 194.804 43.0053 193.352C39.0431 190.025 35.5041 186.41 35.0656 183.778C34.0978 177.88 34.854 160.352 35.3229 152.079C35.3378 151.579 35.3681 151.111 35.3981 150.672C35.867 142.853 40.0716 139.391 42.1738 138.12C43.2477 148.283 45.6671 171.226 45.8637 172.405C46.1207 173.918 48.2537 197.436 48.2537 197.436Z" fill="#4B73C2"/>
<path d="M48.2574 197.436C46.5787 196.195 44.7483 194.804 43.0098 193.352C42.86 186.888 40.9354 177.863 38.2283 166.566C35.0142 152.324 37.0355 149.705 37.0355 149.705L43.4933 150.688C44.5671 160.745 45.7315 171.604 45.8674 172.405C46.1252 173.918 48.2574 197.436 48.2574 197.436Z" fill="#445EB4"/>
<path d="M63.7779 250.939C63.4092 258.16 63.2456 258.812 62.2264 264.001C61.3677 268.409 48.5931 269.175 50.3745 265.78C52.9437 260.849 46.929 252.232 44.7272 225.868C44.4084 221.88 42.6148 221.42 41.4245 213.213C40.2495 204.993 44.768 197.866 44.768 197.866L63.9923 196.082L64.2399 220.026L64.3134 228.123C64.3134 228.123 64.358 239.231 63.7779 250.939Z" fill="#05DCDF"/>
<path d="M50.9903 262.741C50.9903 262.741 47.0087 273.035 47.3004 282.604C47.5586 291.066 48.8212 309.691 48.8212 309.691C48.8212 309.691 56.8046 310.456 59.1661 308.881C62.7312 262.512 62.233 262.446 62.2268 264.001C62.2464 258.689 50.9903 262.741 50.9903 262.741Z" fill="#05DCDF"/>
<path d="M63.7783 250.939C62.5644 247.044 60.1708 239.603 58.1945 235.398C55.4363 229.52 52.7438 226.957 52.7438 226.957C42.9902 216.722 49.6984 203.488 49.6984 203.488C49.6984 203.488 57.6404 210.067 58.1945 210.75C58.7207 211.386 61.8963 216.974 64.2403 220.025L64.3138 228.123C64.3138 228.123 64.3583 239.23 63.7783 250.939Z" fill="#389346"/>
<path d="M86.5696 247.787C86.5696 247.787 90.7447 258.457 90.0528 262.953C89.361 267.449 76.5269 308.09 76.5269 308.09C76.5269 308.09 70.2067 308.526 66.1807 306.325C66.1807 306.325 67.0144 292.911 69.1388 281.099C72.477 262.538 79.4446 258.891 82.5581 257.853C85.6705 256.815 85.7047 250.198 86.5696 247.787Z" fill="#05DCDF"/>
<path d="M77.2461 196.459C77.2461 196.459 88.3236 245.287 89.6442 257.904C90.2045 263.253 83.4348 266.407 78.2467 261.57C72.0539 255.796 62.21 233.037 59.0965 228.368C55.9841 223.699 44.3361 219.418 52.2917 195.726" fill="#05DCDF"/>
<path d="M52.2776 133.571C52.2776 133.571 53.6614 128.884 53.0565 125.425C52.4504 121.966 50.3757 115.741 51.1537 111.072C51.9321 106.403 57.8123 102.511 64.0372 103.116C70.2632 103.722 72.0789 109.688 73.1167 113.146C74.1545 116.606 73.9815 121.88 73.7216 124.734C73.4626 127.587 71.9059 129.836 70.8691 130.441C69.8313 131.046 65.9275 130.248 65.2418 130.993C64.5561 131.737 64.0372 136.148 64.0372 136.148" fill="#32DFFF"/>
<path d="M49.3379 137.271C49.3379 137.271 49.683 134.539 50.7213 133.571C51.7586 132.602 58.6758 132.602 60.7514 132.861C62.8261 133.121 67.9437 135.507 68.6201 136.012C69.2964 136.516 67.9614 139.141 67.9614 139.141L49.3379 137.271Z" fill="#29409D"/>
<path d="M121.633 110.138C121.583 109.647 120.949 109.88 120.783 110.284C120.761 110.339 120.73 110.464 120.692 110.634C120.755 109.825 120.797 109.166 120.78 109.004C120.733 108.538 120.146 108.708 119.945 109.072C119.96 108.747 119.966 108.501 119.958 108.398C119.907 107.8 119.269 108.044 119.103 108.535C119.066 108.646 119.013 108.956 118.954 109.362C118.965 109.146 118.969 108.982 118.96 108.908C118.911 108.417 118.345 108.54 118.181 108.943C118.127 109.076 118.097 109.317 118.004 109.894C117.927 110.386 117.782 110.914 117.713 111.409C117.617 112.1 117.401 112.798 117.396 112.81C116.256 114.151 115.125 114.565 115.125 114.565L113.778 113.833C113.778 113.833 113.347 116.235 113.452 116.961C113.543 117.687 114.072 118.595 114.012 119.033C113.952 119.472 112.305 122.179 112.305 122.179L116.788 123.811C116.788 123.811 117.672 119.956 118.17 119.442C118.685 118.943 120.501 116.795 120.712 116.386C120.803 116.221 121.029 115.449 121.271 114.542L121.535 113.155L121.654 111.802C121.654 111.802 121.649 110.298 121.633 110.138Z" fill="#32DFFF"/>
<path d="M118.347 123.81C118.347 123.81 116.568 128.622 115.328 134.445C114.345 138.937 113.12 143.625 110.987 147.859L110.957 147.965C109.732 150.627 107.448 153.879 105.89 154.211C104.332 154.544 98.8728 154.181 98.8728 154.181C95.4848 154.377 86.9698 153.258 79.7257 152.291C79.6046 152.275 79.4989 152.26 79.3933 152.245C76.0208 151.792 72.9353 151.383 70.8182 151.157C69.8197 151.065 68.8969 150.642 68.2019 149.991C67.567 149.432 67.1133 148.676 66.931 147.799L66.9165 147.769C66.4318 145.424 67.9751 143.549 69.971 142.172L70.2589 141.991C67.7928 139.541 65.2676 136.864 65.2676 136.864C65.2676 136.864 72.2248 137.197 76.112 137.455C78.7583 137.636 96.8158 142.46 98.9784 143.141C99.1452 143.201 99.2964 143.262 99.4476 143.307C99.4476 143.307 99.72 143.337 100.128 143.428C100.249 143.458 100.401 143.519 100.552 143.563C101.157 141.976 102.004 140.282 103.183 138.619C107.055 133.174 111.29 121.657 111.29 121.657C111.29 121.657 114.591 121.88 116.287 122.549C117.288 122.945 118.347 123.81 118.347 123.81Z" fill="#4B73C2"/>
<path d="M52.5366 127.674C52.5366 127.674 61.1834 128.408 62.8261 127.674C64.4698 126.938 66.8469 125.338 67.0634 122.399C67.2798 119.459 66.6739 118.551 67.7988 116.908C68.9226 115.265 69.9169 115.827 70.0899 117.384C70.2628 118.94 70.3312 121.751 70.7393 121.958C71.2893 122.237 71.9449 120.257 71.7336 117.254C71.5492 114.649 71.2572 112.627 70.4793 110.899C69.7014 109.169 69.2788 109.266 68.5766 108.953C69.3337 108.585 70.151 108.542 71.6466 106.208C73.3773 103.505 72.4244 99.2951 67.8423 99.3117C59.8358 99.3417 51.3266 100.911 51.1534 106.834C51.1534 106.834 48.3431 106.403 48.2565 111.806C48.1703 117.211 51.6288 123.739 51.888 125.425C52.1478 127.111 51.6724 127.284 52.5366 127.674Z" fill="#29409D"/>
<path d="M76.5693 191.204C76.8873 193.912 79.2612 198.1 77.6434 198.691C76.9929 198.918 74.3455 198.766 71.1098 198.494H71.0187L70.8675 198.479C67.9943 198.237 64.7119 197.919 61.9589 197.707C50.9645 197.239 45.3536 199.431 44.2499 198.811C43.7203 198.494 43.705 197.541 43.8716 196.558C44.2499 194.139 44.3705 191.704 44.0533 189.268C43.781 187.227 43.4027 184.792 42.8731 182.009C41.0585 172.375 37.5041 157.659 36.9753 148.812C36.1281 134.944 50.9799 136.259 50.9799 136.259C69.8845 135.08 78.762 140.524 79.7905 148.646C79.8661 149.22 79.9117 149.84 79.9573 150.491C80.441 158.869 77.8847 172.391 76.675 182.493C76.3425 185.276 76.4025 188.497 76.5693 191.204Z" fill="#4B73C2"/>
<path d="M76.5698 191.204C76.8878 193.912 79.2618 198.1 77.6439 198.691C76.9935 198.917 74.3461 198.766 71.1104 198.494C74.0291 198.705 74.5739 196.467 73.9235 194.97C73.273 193.457 71.9276 190.054 72.0477 186.016C72.1844 181.994 73.6966 172.919 74.5884 164.344C75.4357 156.374 74.7096 150.143 74.604 149.311C75.0576 150.218 76.3575 151.489 80.0179 152.336C80.0935 160.76 77.7951 173.101 76.6755 182.492C76.343 185.275 76.4031 188.497 76.5698 191.204Z" fill="#445EB4"/>
<path d="M65.7373 303.821V306.498C65.7373 306.498 67.2029 307.891 68.7586 308.125C69.8834 308.294 75.836 309 76.8717 308.569L77.7355 306.265C77.7355 306.265 72.3765 305.98 69.6183 305.116C66.8601 304.253 65.7373 303.821 65.7373 303.821Z" fill="#60DEA4"/>
<path d="M47.583 306.858L48.0879 309.486C48.0879 309.486 49.5607 310.516 51.3615 310.514C52.4988 310.512 58.8904 310.496 59.8257 309.877V306.995C59.8257 306.995 54.5102 307.725 51.6382 307.397C48.7665 307.07 47.583 306.858 47.583 306.858Z" fill="#60DEA4"/>
<path d="M354.617 92.8414C344.784 86.2447 330.193 64.6035 328.778 64.5414C327.96 64.5041 327.211 65.0043 324.819 65.0426C323.629 65.0623 321.707 64.675 320.55 64.4015C320.307 64.3446 320.017 64.2172 320.016 63.9686C320.016 63.8153 320.136 63.6889 320.261 63.5988C320.751 63.2435 321.387 63.1721 321.992 63.1628C322.492 63.1545 323.132 63.0861 323.268 62.6045C323.348 62.3207 323.186 62.012 322.95 61.8328C322.713 61.6526 322.419 61.576 322.132 61.5014C320.584 61.1047 318.648 60.7463 317.099 60.3476C318.043 60.0555 319.384 59.7551 320.344 59.5231C321.068 59.3491 321.799 59.1917 322.54 59.1492C323.607 59.0891 326.067 59.1461 327.12 59.3242C329.263 59.6878 330.046 60.1839 331.985 61.1627C333.158 61.7551 334.214 62.5548 335.249 63.3647C337.901 65.4425 347.986 77.2501 350.18 78.8866" fill="#30A971"/>
<path d="M284.104 89.9619C283.871 91.066 283.618 92.1463 283.345 93.2069C282.532 96.3567 284.499 99.5489 287.668 100.283L313.235 106.203C316.345 106.922 319.447 105.004 320.203 101.902C320.535 100.543 320.848 99.1584 321.146 97.7466C323.835 84.9488 324.049 72.4617 321.793 60.2853C320.823 55.0682 319.451 50.0758 317.684 45.3061C316.46 42.0031 312.568 40.5758 309.47 42.2548L284.953 55.5415C282.407 56.9212 281.337 59.9653 282.35 62.6779C282.946 64.273 283.467 65.9188 283.913 67.6143C285.718 74.5104 285.784 81.9658 284.104 89.9619Z" fill="#32DFFF"/>
<path d="M306.531 117.175C306.531 117.175 310.425 124.525 312.251 133.06C313.809 140.345 310.509 152.36 311.552 160.88C311.804 162.537 312.297 166.521 313.027 167.676C313.922 169.091 315.788 170.594 316.093 172.542C316.271 173.671 315.673 174.9 314.343 175.619C313.014 176.337 312.063 175.675 311.574 175.751C308.734 176.19 308.337 178.281 303.475 179.238C301.976 179.534 299.638 179.134 298.253 178.184C297.717 177.816 297.702 177.185 297.968 176.742C298.236 176.298 301.788 174.977 303.369 173.917C304.875 172.909 306.428 170.311 306.628 169.3C306.83 168.288 305.807 163.567 305.365 161.587C302.317 147.948 298.385 128.726 296.436 120.778" fill="#32DFFF"/>
<path d="M297.701 178.131C297.335 177.545 297.233 176.66 297.563 176.445C298.02 176.145 299.649 175.111 300.594 174.693C301.541 174.277 305.554 171.926 305.026 172.199C304.499 172.473 305.44 173.042 306.328 172.993C309.402 172.819 309.135 172.854 310.881 172.438C313.401 171.841 313.979 169.525 314.084 169.063C314.566 169.354 316.204 171.576 316.439 172.299C316.652 172.953 317.032 174.146 316.847 174.827C316.719 175.296 312.595 176.363 312.595 176.363C312.595 176.363 311.906 176.336 311.033 176.507C310.158 176.678 309.144 177.296 308.676 177.779C308.31 178.157 307.954 178.752 307.483 178.952C306.123 179.529 305.122 179.79 303.557 179.874C300.262 180.051 298.326 179.132 297.701 178.131Z" fill="#254488"/>
<path d="M303.512 119.891C303.512 119.891 307.37 128.688 306.179 137.334C305.162 144.715 297.565 157.046 295.644 165.412C295.316 167.053 294.422 170.968 294.715 172.303C295.074 173.938 296.316 175.986 295.94 177.922C295.723 179.043 294.741 179.996 293.245 180.219C291.753 180.441 291.084 179.495 290.598 179.4C287.778 178.845 286.692 180.676 281.796 179.92C280.285 179.686 278.223 178.514 277.245 177.149C276.866 176.621 277.067 176.022 277.468 175.696C277.87 175.371 281.661 175.338 283.508 174.881C285.267 174.445 287.612 172.532 288.145 171.65C288.681 170.768 289.327 165.979 289.585 163.968C291.366 150.106 294.868 126.755 295.741 118.618" fill="#32DFFF"/>
<path d="M276.781 177.36C276.611 176.691 276.781 175.817 277.161 175.711C277.687 175.564 279.552 175.071 280.58 174.962C281.608 174.851 286.145 173.826 285.559 173.927C284.974 174.028 285.697 174.856 286.56 175.078C289.541 175.844 289.276 175.796 291.066 175.931C293.65 176.124 294.901 174.093 295.141 173.683C295.512 174.107 296.4 176.721 296.405 177.482C296.409 178.168 296.41 179.421 296.028 180.014C295.764 180.422 291.509 180.189 291.509 180.189C291.509 180.189 290.861 179.955 289.977 179.853C289.093 179.751 287.939 180.033 287.347 180.352C286.884 180.6 286.364 181.06 285.855 181.108C284.383 181.245 283.349 181.191 281.833 180.796C278.639 179.966 277.072 178.503 276.781 177.36Z" fill="#2B4AA5"/>
<path d="M347.258 100.688L369.536 113.428C369.536 113.428 368.646 121.536 358.561 123.691C352.71 124.943 342.899 122.956 340.573 123.655C325.521 128.177 299.628 122.999 299.628 122.999C299.628 122.999 295.956 125.969 295.766 122.894C295.512 118.789 295.202 116.802 298.369 114.703C303.708 111.167 324.105 104.462 347.258 100.688Z" fill="#32DFFF"/>
<path d="M365.231 93.615C365.231 93.615 372.206 107.191 370.421 112.973C368.638 118.756 365.235 124.226 355.664 124.297C346.092 124.369 327.035 128.826 327.035 128.826C327.035 128.826 321.275 118.107 319.168 114.214C317.058 110.322 318.784 106.254 318.784 106.254C318.784 106.254 337.983 99.7695 339.671 98.1568C341.357 96.5441 343.01 92.9656 343.01 92.9656" fill="#2B4AA5"/>
<path d="M342.592 44.5771C341.314 45.0007 341.792 48.0459 340.515 48.4695C339.589 48.7761 337.774 48.368 336.925 48.8476C332.422 51.3862 333.578 56.4531 333.033 62.7319C331.128 67.5502 330.62 71.917 332.139 74.6079C334.024 77.9482 336.018 78.8908 338.333 81.6583C340.064 83.7278 339.754 87.008 340.11 91.5809C340.171 92.3681 339.246 96.1559 339.246 96.1559C339.074 97.1046 343.215 97.8876 345.671 97.4619C350.208 96.6737 359.491 95.4961 362.047 95.5913C364.454 95.6804 367.079 93.0827 367.079 93.0827C367.079 93.0827 365.922 91.6845 365.529 89.7662C364.664 85.5403 364.001 74.9787 363.327 71.3981C361.604 62.2275 360.343 55.4081 356.584 46.9563" fill="#71BAE9"/>
<path d="M329.581 66.5641C330.981 64.1125 332.9 61.8908 334.777 59.7571L339.67 61.9592C337.369 66.3725 336.95 71.571 335.894 76.3966C334.788 76.5054 333.069 76.119 333.069 76.119C332.594 75.3412 332.772 75.7296 332.139 74.6079C331.122 72.8046 329.792 69.7978 329.581 66.5641Z" fill="#4860B6"/>
<path d="M326.239 32.1904C325.717 30.0443 325.333 27.7542 325.407 25.8588C325.547 22.2212 326.008 16.9523 332.054 14.7865C338.1 12.6228 344.769 13.9217 346.749 18.2822C348.73 22.6417 348.268 29.2426 348.558 32.7704C348.847 36.2992 351.435 40.5231 351.435 40.5231L338.416 46.1276C338.416 46.1276 336.289 41.5039 335.414 40.9498C334.539 40.3957 334.499 41.9938 331.521 42.6837C330.317 42.9633 328.788 40.0393 327.793 37.3194L327.699 37.0523C327.056 37.017 326.318 36.9684 326.15 36.9186C325.253 36.6514 325.324 36.2547 325.525 35.684C325.96 34.4525 326.152 33.1515 326.239 32.1904Z" fill="#32DFFF"/>
<path d="M305.088 103.657C304.918 104.703 302.444 107.214 300.834 107.4C300.317 107.46 299.776 107.395 299.333 107.117C298.584 107.317 296.326 107.201 297.364 106.031C295.764 106.984 294.174 106.662 292.402 106.284C291.809 106.158 291.942 105.463 293.307 105.321C295.203 105.123 296.707 104.131 297.942 102.553C297.704 102.301 297.423 102.648 296.665 102.645C295.825 102.641 295.446 102.201 295.479 101.84C295.503 101.567 296.539 101.412 296.776 101.304C297.682 100.897 298.587 100.489 299.494 100.082C300.489 99.6338 301.133 99.4577 302.226 99.5571C302.409 99.5737 304.154 99.9652 303.614 100.536" fill="#32DFFF"/>
<path d="M335.519 69.0613C335.519 69.0613 328.686 87.4792 327.498 88.9831C322.815 94.9098 304.413 104.241 304.413 104.241C304.413 104.241 301.553 103.175 302.126 100.224C307.788 97.7343 318.241 86.2736 320.528 84.8743C322.01 83.9669 328.551 61.4506 328.551 61.4506" fill="#32DFFF"/>
<path d="M332.715 48.5864C337.661 46.6961 342.392 46.6858 346.181 42.898C350.026 45.8551 341.538 62.9565 339.441 63.4154C337.297 63.8846 334.502 73.3245 333.976 74.6078C327.127 74.4265 324.621 70.6926 324.621 70.6926C327.418 62.0989 327.92 50.4187 332.715 48.5864Z" fill="#71BAE9"/>
<path d="M336.682 49.0527C337.022 47.7662 337.994 46.7439 338.212 45.4296C338.418 44.1898 338.175 42.5978 337.485 41.531C337.059 40.8733 336.401 40.4155 335.789 39.9338C333.068 37.7867 332.249 37.3072 333.16 34.0963C333.459 33.0471 333.732 31.9605 333.624 30.874C333.526 29.89 333.326 28.8636 332.268 28.7393C331.531 28.6534 331.095 28.8491 330.799 29.4519C330.458 30.148 331.736 35.9513 329.815 29.9439C329.219 28.0806 327.949 28.1272 327.996 24.2369C328.001 23.776 328.159 21.8982 327.873 21.6216C324.292 24.1271 325.886 27.7688 325.675 29.4209C324.315 28.8471 323.588 24.3228 323.587 23.5761C323.584 22.0483 323.747 20.8717 324.304 19.6785C326.667 14.6064 329.176 13.6763 331.292 12.7783C333.347 11.9051 335.481 11.0165 337.706 11.0766C339.932 11.1377 342.693 11.7985 343.337 13.4671C346.422 12.6716 348.187 15.3677 348.915 16.3372C349.955 17.7199 350.763 19.2797 351.299 20.9328C352.087 23.3699 352.271 25.9646 352.893 28.4514C353.4 30.4753 354.267 32.5685 355.832 33.9834C357.336 35.3444 359.449 35.4697 361.081 36.7157C363.156 38.2994 364.314 40.9261 364.202 43.5465C364.089 46.1577 362.747 48.9729 364.323 51.3686C364.836 52.1475 365.555 52.77 366.06 53.5541C367.223 55.3594 367.055 57.8504 365.943 59.6889C364.831 61.5284 362.661 63.6289 360.623 64.2338C358.585 64.8386 356.991 65.1411 354.871 65.0241C351.121 64.819 347.966 65.0324 343.998 61.6423C341.751 59.722 343.189 58.6251 341.032 56.5888C339.824 55.4464 338.108 54.8384 337.222 53.3562C336.489 52.1299 336.339 50.5887 336.646 49.2039L336.682 49.0527Z" fill="#2B4AA5"/>
<path d="M331.153 128.377C327.862 122.565 322.274 112.586 321.638 110.722C321.169 109.341 321.501 106.859 321.929 104.787C320.039 105.467 318.784 105.906 318.784 105.906C318.784 105.906 317.058 110.126 319.168 114.164C321.275 118.202 327.035 129.322 327.035 129.322C327.035 129.322 328.645 128.931 331.153 128.377Z" fill="#27438F"/>
<path d="M264.725 395.261C234.303 395.261 209.643 393.233 209.643 390.733C209.643 388.231 234.303 386.202 264.725 386.202C295.143 386.202 319.804 388.231 319.804 390.733C319.804 393.233 295.143 395.261 264.725 395.261Z" fill="#F4F7FC"/>
<path d="M201.03 282.296C201.03 282.296 199.401 281.679 198.91 281.319C198.418 280.962 198.129 278.858 197.498 278.076C196.881 277.278 194.417 275.628 194.417 275.628C194.417 275.628 191.974 273.596 191.582 273.451C191.19 273.305 190.9 274.03 191.27 274.777C191.64 275.526 193.068 276.827 193.075 277.091C193.08 277.354 192.979 277.657 192.636 277.745C191.961 277.923 190.936 278.098 189.625 278.016C189.612 278.009 188.714 277.556 187.938 276.993C187.382 276.588 186.723 276.228 186.162 275.835C185.503 275.375 185.236 275.174 185.054 275.103C184.495 274.88 183.836 275.322 184.273 275.839C184.339 275.919 184.506 276.071 184.728 276.266C184.271 275.938 183.913 275.694 183.768 275.625C183.124 275.32 182.274 275.719 182.817 276.338C182.912 276.446 183.16 276.675 183.496 276.97C182.944 276.823 182.217 277.241 182.633 277.733C182.777 277.902 183.468 278.49 184.328 279.199C184.125 279.075 183.97 278.987 183.896 278.956C183.337 278.734 182.502 279.139 182.94 279.656C183.083 279.826 184.566 281.268 184.566 281.268L186.018 282.44L187.642 283.502C188.771 284.128 189.75 284.641 190.001 284.709C190.607 284.89 194.465 285.143 195.449 285.111C196.434 285.108 199.11 286.736 199.11 286.736L201.03 282.296Z" fill="#3146A3"/>
<path d="M189.65 189.219C184.394 194.732 179.621 201.003 175.346 208.054C169.982 216.908 166.162 227.777 163.891 240.655L159.578 265.094C158.953 268.642 159.499 271.892 161.235 274.851C162.962 277.819 165.328 279.559 168.336 280.09L183.491 282.764C186.493 283.295 189.312 282.468 191.956 280.273C194.592 278.084 196.226 275.22 196.852 271.672L198.046 264.908C199.978 253.962 206.006 230.572 211.085 223.328C212.427 221.417 213.83 219.565 215.29 217.767L189.65 189.219Z" fill="#30A971"/>
<path d="M235.932 376.35C235.932 376.35 238.604 381.35 238.742 383.127C238.843 384.433 243.941 383.395 244.276 382.635C244.61 381.873 242.017 374.084 242.017 374.084" fill="#4D97D8"/>
<path d="M245.808 383.297C246.153 384.948 246.59 388.835 246.59 388.835L241.032 389.59L240.774 388.89C240.774 388.89 239.97 389.626 238.488 389.935L228.752 391.255C228.752 391.255 226.069 391.479 225.928 390.843C225.521 389.011 229.45 387.851 230.431 387.269C233.815 385.268 236.072 384.112 237.219 382.584C238.018 381.519 237.217 381.039 237.926 381.122C237.926 381.122 238.552 381.125 239.103 381.773C239.949 382.769 241.267 383.28 242.48 382.794C243.173 382.518 243.839 382.091 244.248 381.437C244.248 381.437 245.463 381.644 245.808 383.297Z" fill="#28419D"/>
<path d="M222.204 329.048C214.877 327.926 216.002 327.423 210.581 327.374C205.978 327.325 202.07 335.502 206.081 339.981C210.817 345.271 213.52 345.613 239.537 353.274C243.475 354.419 248.408 355.57 256.402 358.462C264.414 361.34 271.797 359.757 271.797 359.757L273.427 340.089L249.436 334.889L241.321 333.142C241.321 333.142 234.081 330.886 222.204 329.048Z" fill="#30A971"/>
<path d="M216.633 329.294C216.633 329.294 226.221 338.58 230.67 346.033C235.12 353.484 243.83 376.156 243.83 376.156C243.83 376.156 239.039 379.199 235.696 378.917C235.696 378.917 209.815 346.615 205.054 338.412C202.321 333.703 216.633 329.294 216.633 329.294Z" fill="#30A971"/>
<path d="M279.25 374.896C279.25 374.896 285.533 374.678 286.832 374.52C288.131 374.364 287.92 369.429 287.221 368.977C286.523 368.526 279.532 369.018 279.532 369.018" fill="#507AC6"/>
<path d="M288.12 367.568C289.805 367.49 292.572 367.831 292.572 367.831L292.849 373.765L291.872 374.104C291.872 374.104 292.952 375.982 293.023 377.493L293.256 382.502C293.428 386.168 293.067 388.356 292.416 388.395C290.544 388.507 290.021 384.444 289.604 383.382C288.164 379.723 287.38 377.31 286.053 375.937C285.128 374.979 284.527 375.695 284.722 375.007C284.722 375.007 284.824 374.391 285.553 373.949C286.669 373.271 287.382 372.05 287.096 370.776C286.933 370.047 286.618 369.322 286.035 368.815C286.035 368.815 286.433 367.647 288.12 367.568Z" fill="#3146A3"/>
<path d="M281.245 359.264C273.291 362.245 272.475 363.518 268.916 365.562C245.332 378.949 237.489 380.542 231.811 381.113C225.67 381.729 222.867 373.835 226.095 370.558C229.07 367.529 230.091 366.86 233.226 364.551C234.088 363.916 235.116 363.152 236.399 362.185C245.968 354.916 255.382 348.524 255.382 348.524L262.289 343.905L264.55 342.388L255.452 335.157L287.778 334.466C287.778 334.466 294.993 354.115 281.245 359.264Z" fill="#30A971"/>
<path d="M227.456 367.96C227.456 367.96 241.11 365.023 249.766 365.648C258.422 366.275 281.399 367.557 281.399 367.557C281.399 367.557 281.921 374.693 281.035 377.016C281.035 377.016 228.34 393.821 219.89 388.397C209.252 381.569 227.456 367.96 227.456 367.96Z" fill="#30A971"/>
<path d="M270.907 276.452C268.189 276.176 235.557 283.425 232.238 283.987C228.92 284.548 199.601 281.602 199.601 281.602C199.601 281.602 199.949 283.537 200.167 285.733C200.225 286.647 228.368 299.24 232.238 297.94C236.11 296.64 272.89 290.002 272.89 290.002L270.907 276.452Z" fill="#30A971"/>
<path d="M279.188 269.711C279.188 269.711 277.77 264.906 278.39 261.36C279.01 257.815 281.139 251.433 280.34 246.646C279.542 241.859 273.514 237.87 267.132 238.491C260.751 239.112 258.888 245.227 257.826 248.774C256.762 252.318 256.939 257.726 257.204 260.651C257.47 263.577 259.066 265.881 260.13 266.502C261.194 267.121 265.195 266.303 265.898 267.067C266.601 267.831 267.132 272.352 267.132 272.352" fill="#507AC6"/>
<path d="M282.201 273.505C282.201 273.505 281.847 270.703 280.783 269.711C279.719 268.719 272.628 268.718 270.5 268.984C268.374 269.25 263.127 271.696 262.435 272.213C261.741 272.731 263.11 275.421 263.11 275.421L282.201 273.505Z" fill="#3146A3"/>
<path d="M278.918 263.653C278.606 263.745 278.23 263.72 277.9 263.76C277.029 263.869 276.252 264.08 275.349 264.115C274.202 264.158 273.055 264.201 271.91 264.244C270.516 264.298 268.995 264.312 267.89 263.462C266.711 262.555 266.37 260.949 266.153 259.477C266.126 259.289 266.113 259.061 266.263 258.944C266.359 258.871 266.491 258.868 266.613 258.867C269.571 258.848 269.889 254.766 269.224 252.673C268.8 251.334 266.612 250.827 266.099 252.431C265.933 252.953 266.099 253.661 265.636 253.955C265.281 254.179 264.779 253.935 264.586 253.561C264.395 253.186 264.43 252.741 264.486 252.322C264.7 250.727 265.161 249.165 265.847 247.707C266.184 246.989 268.078 245.451 266.828 244.825C265.831 244.324 264.662 244.378 263.558 244.218C261.534 243.925 261.493 243.887 259.76 242.802C258.891 242.258 258.553 240.907 258.078 239.998C257.603 239.09 257.719 237.789 258.593 237.254C259.034 236.985 259.019 237.701 259.535 237.677C261.215 237.596 262.045 236.693 263.702 236.397C266.984 235.81 269.278 236.129 272.509 236.445C274.205 236.611 275.937 236.926 277.39 237.821C278.605 238.57 279.331 239.63 279.8 240.951C280.155 241.946 280.586 242.048 281.452 242.548C283.059 243.478 283.283 245.741 283.309 247.399C283.397 252.94 279.853 259.632 279.587 261.36C279.587 261.801 279.643 262.763 279.463 263.179C279.345 263.452 279.149 263.583 278.918 263.653Z" fill="#3146A3"/>
<path d="M254.285 328.793C253.96 331.567 251.526 335.862 253.185 336.467C253.851 336.699 256.564 336.545 259.882 336.265H259.975L260.131 336.25C263.076 336.001 266.44 335.676 269.263 335.46C274.688 335.229 279.234 335.464 282.615 335.699C286.26 335.952 288.554 336.205 289.14 335.875C289.684 335.55 289.698 334.573 289.527 333.566C289.14 331.084 287.293 329.304 287.619 326.808C287.898 324.716 288.629 296.307 289.173 287.237C290.041 273.021 280.518 272.467 280.518 272.467C261.138 271.258 252.037 276.839 250.983 285.164C250.905 285.753 250.858 286.389 250.812 287.056C250.316 295.645 252.936 309.505 254.177 319.862C254.518 322.714 254.455 326.018 254.285 328.793Z" fill="#12C170"/>
<path d="M252.205 305.518C251.664 301.567 251.182 297.639 250.931 294.068C250.933 294.067 250.933 294.067 250.934 294.067C251.184 297.638 251.665 301.567 252.205 305.518Z" fill="#FADE96"/>
<path d="M250.93 294.068C250.804 292.254 250.735 290.534 250.75 288.948C250.751 288.948 250.751 288.947 250.752 288.947C250.739 290.533 250.806 292.253 250.933 294.067C250.932 294.067 250.932 294.067 250.93 294.068Z" fill="#32DFFF"/>
<path d="M254.514 336.58C253.873 336.58 253.411 336.546 253.186 336.467C252.77 336.316 252.612 335.934 252.612 335.403C252.612 333.81 254.041 330.873 254.286 328.793C254.366 327.47 254.423 326.028 254.423 324.572C254.423 322.971 254.356 321.356 254.177 319.862C253.656 315.485 252.884 310.483 252.205 305.518C251.665 301.566 251.185 297.638 250.934 294.066C250.807 292.253 250.739 290.532 250.753 288.947C254.502 288.079 255.835 286.777 256.3 285.847C256.192 286.699 259.242 289.929 259.242 289.929C259.242 289.929 266.047 302.534 260.122 326.007C259.499 328.475 259.45 329.611 258.704 330.237C258.038 330.796 257.488 331.471 257.158 332.275C257.102 332.411 257.048 332.539 256.998 332.653C256.361 334.12 256.843 336.28 259.498 336.28C259.621 336.28 259.749 336.276 259.882 336.265C258.892 336.349 257.955 336.422 257.111 336.476C256.087 336.541 255.198 336.58 254.514 336.58Z" fill="#05DCDF"/>
<path d="M200.166 283.678C200.166 283.678 198.538 283.059 198.046 282.701C197.555 282.343 197.266 280.239 196.634 279.457C196.017 278.658 193.554 277.01 193.554 277.01C193.554 277.01 191.111 274.976 190.719 274.831C190.328 274.685 190.037 275.41 190.406 276.159C190.776 276.907 192.206 278.208 192.212 278.473C192.217 278.736 192.116 279.039 191.774 279.127C191.098 279.304 190.073 279.479 188.763 279.397C188.749 279.39 187.85 278.938 187.074 278.374C186.519 277.97 185.86 277.608 185.299 277.217C184.64 276.756 184.372 276.556 184.19 276.483C183.633 276.262 182.972 276.703 183.41 277.221C183.476 277.3 183.643 277.453 183.865 277.648C183.407 277.318 183.05 277.075 182.905 277.005C182.261 276.701 181.41 277.1 181.954 277.719C182.049 277.827 182.297 278.056 182.633 278.351C182.081 278.205 181.354 278.621 181.769 279.113C181.913 279.283 182.605 279.871 183.465 280.581C183.262 280.456 183.106 280.367 183.032 280.337C182.475 280.115 181.638 280.52 182.076 281.038C182.219 281.206 183.703 282.648 183.703 282.648L185.155 283.821L186.779 284.883C187.907 285.509 188.887 286.022 189.139 286.09C189.745 286.271 193.601 286.525 194.586 286.492C195.571 286.489 198.247 288.117 198.247 288.117L200.166 283.678Z" fill="#507AC6"/>
<path d="M196.617 287.537C196.617 287.537 227.06 302.319 231.49 302.319C235.92 302.319 260.556 299.089 262.544 296.834C264.533 294.578 263.292 287.062 262.984 286.139L262.982 286.102C262.162 283.634 259.69 282.709 257.063 282.501C256.937 282.48 256.811 282.494 256.693 282.487C257.678 278.841 264.724 275.396 264.724 275.396C264.724 275.396 258.106 272.844 248.607 280.713C244.491 284.121 230.832 289.272 230.715 289.397C229.282 288.232 199.718 283.501 199.718 283.501L197.355 286.712L197.319 286.751L197.314 286.773L196.617 287.537Z" fill="#12C170"/>
<path d="M257.882 250.274C256.942 251.313 256.023 252.369 255.12 253.441C254.635 254.018 254.131 254.655 254.088 255.409C254.077 255.585 254.094 255.767 254.171 255.926C254.311 256.22 254.627 256.388 254.94 256.481C256.232 256.863 257.594 256.272 258.782 255.636" fill="#507AC6"/>
<path d="M282.217 377.321L279.596 377.418C279.599 377.393 279.935 374.234 280.01 372.255C280.084 370.268 279.792 367.119 279.789 367.093H282.476C282.485 367.208 282.815 370.354 282.735 372.466C282.656 374.583 282.235 377.214 282.217 377.321Z" fill="#30A971"/>
<path d="M257.877 344.047C257.116 345.178 256.316 346.279 255.514 347.38C255.107 347.93 254.713 348.479 254.255 349.009C253.787 349.53 253.288 350.007 252.778 350.467C250.73 352.301 248.541 353.927 246.302 355.502L246.335 355.476C243.39 357.854 240.385 360.141 237.261 362.272C235.698 363.337 234.103 364.354 232.482 365.332C230.855 366.295 229.192 367.211 227.456 367.961C229.074 366.985 230.627 365.924 232.171 364.851C233.723 363.791 235.227 362.658 236.74 361.541C239.756 359.298 242.758 357.023 245.711 354.703L245.732 354.686L245.745 354.678C246.867 353.929 247.989 353.162 249.087 352.373C250.191 351.588 251.294 350.802 252.342 349.957C252.866 349.535 253.376 349.096 253.843 348.629C254.295 348.149 254.748 347.633 255.198 347.127L257.877 344.047Z" fill="#05DCDF"/>
<path d="M265.936 367.8C262.54 369.82 258.928 371.425 255.248 372.835C251.555 374.2 247.754 375.373 243.829 375.883L249.381 373.909L254.884 371.865C258.552 370.495 262.202 369.079 265.936 367.8Z" fill="#05DCDF"/>
<path d="M201.192 325.293C201.192 339.193 189.923 350.461 176.022 350.461C162.123 350.461 150.854 339.193 150.854 325.293C150.854 311.392 162.123 300.123 176.022 300.123C189.923 300.123 201.192 311.392 201.192 325.293Z" fill="#48EFA2"/>
</svg>
