<svg width="33" height="33" viewBox="0 0 33 33" fill="none" xmlns="http://www.w3.org/2000/svg">
<path d="M10.4155 19.9009H1.13375C0.506876 19.9009 0 20.4084 0 21.0345C0 21.6604 0.506876 22.1681 1.13375 22.1681H10.4155C11.0419 22.1681 11.549 21.6604 11.549 21.0345C11.549 20.4084 11.0419 19.9009 10.4155 19.9009Z" fill="#046AF3"/>
<path d="M11.549 15.3662H4.53456C3.90796 15.3662 3.40088 15.8738 3.40088 16.5C3.40088 17.126 3.90796 17.6336 4.53456 17.6336H11.5489C12.1756 17.6336 12.6827 17.126 12.6827 16.5C12.6828 15.8738 12.1757 15.3662 11.549 15.3662Z" fill="#046AF3"/>
<path d="M13.8165 11.9652C13.8165 11.3392 13.3095 10.8315 12.6828 10.8315H7.93569C7.30882 10.8315 6.80188 11.3392 6.80188 11.9652C6.80188 12.5913 7.30882 13.0989 7.93569 13.0989H12.6828C13.3094 13.099 13.8165 12.5913 13.8165 11.9652Z" fill="#046AF3"/>
<path d="M32.418 8.96273C31.9572 8.42367 31.2865 8.11484 30.5765 8.11484H17.5794C16.3782 8.11484 15.3718 8.97607 15.1846 10.164L13.3204 22.0897C13.2121 22.7892 13.4135 23.499 13.8738 24.037C14.3346 24.5761 15.0052 24.8851 15.7152 24.8851H28.7124C29.9137 24.8851 30.9199 24.0237 31.1072 22.8357L32.9713 10.9103C33.0796 10.2105 32.8784 9.50077 32.418 8.96273ZM28.8662 22.4848C28.8542 22.5617 28.7897 22.6177 28.7124 22.6177H15.7152C15.6697 22.6177 15.6266 22.5973 15.5967 22.5633C15.5669 22.5286 15.5547 22.4821 15.5614 22.4377L17.4256 10.5149C17.4378 10.4379 17.5021 10.382 17.5795 10.382H21.7688L21.2241 13.3154C21.1829 13.5368 21.2417 13.7653 21.3864 13.9387C21.5305 14.1125 21.7444 14.2126 21.97 14.2126H24.6062C24.9716 14.2126 25.2858 13.952 25.3522 13.5928L25.9492 10.3821H30.5765C30.6221 10.3821 30.6654 10.4027 30.6951 10.4365C30.7248 10.4714 30.737 10.5179 30.7304 10.5621L28.8662 22.4848Z" fill="#046AF3"/>
</svg>
