<svg width="512" height="512" viewBox="0 0 512 512" fill="none" xmlns="http://www.w3.org/2000/svg">
<g clip-path="url(#clip0)">
<path d="M448 274.23H402.297C343.094 274.23 294.929 322.395 294.929 381.598V423.159L266 452.088V213.529C320.328 208.469 363 162.628 363 107C363 95.481 361.178 84.144 357.583 73.302C355.845 68.058 350.181 65.221 344.944 66.956C339.701 68.694 336.861 74.352 338.598 79.595C341.52 88.403 343 97.624 343 107C343 154.972 303.972 194 256 194C208.028 194 169 154.972 169 107C169 59.028 208.028 20 256 20C264.83 20 273.535 21.315 281.874 23.91C287.145 25.55 292.752 22.605 294.394 17.332C296.035 12.059 293.089 6.453 287.816 4.812C277.551 1.619 266.847 0 256 0C197 0 149 48 149 107C149 162.628 191.672 208.469 246 213.529V365.86L217.071 336.932V295.372C217.071 236.169 168.906 188.004 109.703 188.004H64C58.478 188.004 54 192.482 54 198.004V243.707C54 302.91 102.165 351.075 161.368 351.075H202.929L246 394.145V492H145.839C140.317 492 135.839 496.478 135.839 502C135.839 507.522 140.317 512 145.839 512H366.161C371.683 512 376.161 507.522 376.161 502C376.161 496.478 371.683 492 366.161 492H266V480.373L309.072 437.302H350.632C409.835 437.302 458 389.137 458 329.934V284.23C458 278.708 453.522 274.23 448 274.23V274.23ZM161.368 331.074C113.193 331.074 74 291.881 74 243.706V208.003H109.703C157.878 208.003 197.071 247.196 197.071 295.371V316.931L152.91 272.77C149.004 268.866 142.674 268.866 138.767 272.77C134.862 276.675 134.862 283.007 138.767 286.913L182.929 331.074H161.368ZM438 329.934C438 378.109 398.807 417.302 350.632 417.302H329.072L373.233 373.142C377.138 369.237 377.138 362.905 373.233 358.999C369.328 355.096 362.998 355.095 359.09 358.999L314.929 403.16V381.599C314.929 333.424 354.122 294.231 402.297 294.231H438V329.934Z" fill="#F26A36"/>
<path d="M324.38 48.2002C327.01 48.2002 329.59 47.1302 331.45 45.2692C333.309 43.4102 334.38 40.8302 334.38 38.2002C334.38 35.5692 333.31 32.9902 331.45 31.1302C329.59 29.2702 327.01 28.2002 324.38 28.2002C321.75 28.2002 319.17 29.2692 317.31 31.1302C315.451 32.9902 314.38 35.5692 314.38 38.2002C314.38 40.8302 315.45 43.4102 317.31 45.2692C319.17 47.1302 321.75 48.2002 324.38 48.2002Z" fill="#F26A36"/>
<path d="M284.635 139.2H266.921L244.14 99.3203V139.2H226.378V70.2393H244.14L266.921 110.119V70.2393H284.635V139.2Z" fill="#F26A36"/>
<line x1="219.943" y1="97.5" x2="290.557" y2="97.5" stroke="#F26A36" stroke-width="13"/>
<line x1="219.943" y1="97.5" x2="290.557" y2="97.5" stroke="#F26A36" stroke-width="13"/>
<line x1="219.943" y1="97.5" x2="290.557" y2="97.5" stroke="#F26A36" stroke-width="13"/>
<line x1="219.943" y1="97.5" x2="290.557" y2="97.5" stroke="#F26A36" stroke-width="13"/>
<line x1="219.943" y1="116.5" x2="290.557" y2="116.5" stroke="#F26A36" stroke-width="13"/>
<line x1="219.943" y1="116.5" x2="290.557" y2="116.5" stroke="#F26A36" stroke-width="13"/>
<line x1="219.943" y1="116.5" x2="290.557" y2="116.5" stroke="#F26A36" stroke-width="13"/>
<line x1="219.943" y1="116.5" x2="290.557" y2="116.5" stroke="#F26A36" stroke-width="13"/>
</g>
<defs>
<clipPath id="clip0">
<rect width="512" height="512" fill="#F26A36"/>
</clipPath>
</defs>
</svg>
