<svg width="14" height="13" viewBox="0 0 14 13" fill="none" xmlns="http://www.w3.org/2000/svg">
<path d="M6.29739 11.6348L6.96149 12.2687C7.24269 12.5371 7.6974 12.5371 7.97561 12.2687L13.7911 6.72044C14.0723 6.45202 14.0723 6.01798 13.7911 5.75242L7.97561 0.201313C7.69441 -0.0671044 7.2397 -0.0671044 6.96149 0.201313L6.29739 0.835236C6.01319 1.10651 6.01918 1.54911 6.30935 1.81467L9.91409 5.0928H1.31656C0.918696 5.0928 0.598607 5.39834 0.598607 5.77812V6.69188C0.598607 7.07166 0.918696 7.3772 1.31656 7.3772H9.91409L6.30935 10.6553C6.01619 10.9209 6.0102 11.3635 6.29739 11.6348Z" fill="#007BFF"/>
</svg>
