<svg width="21" height="22" viewBox="0 0 21 22" fill="none" xmlns="http://www.w3.org/2000/svg">
<path d="M5.04167 9.625C7.82809 9.625 10.0833 7.47227 10.0833 4.8125C10.0833 2.15273 7.82809 0 5.04167 0C2.25525 0 0 2.15273 0 4.8125C0 7.47227 2.25525 9.625 5.04167 9.625ZM5.04167 2.75C6.23456 2.75 7.20238 3.67383 7.20238 4.8125C7.20238 5.95117 6.23456 6.875 5.04167 6.875C3.84877 6.875 2.88095 5.95117 2.88095 4.8125C2.88095 3.67383 3.84877 2.75 5.04167 2.75ZM15.125 12.375C12.3386 12.375 10.0833 14.5277 10.0833 17.1875C10.0833 19.8473 12.3386 22 15.125 22C17.9114 22 20.1667 19.8473 20.1667 17.1875C20.1667 14.5277 17.9114 12.375 15.125 12.375ZM15.125 19.25C13.9321 19.25 12.9643 18.3262 12.9643 17.1875C12.9643 16.0488 13.9321 15.125 15.125 15.125C16.3179 15.125 17.2857 16.0488 17.2857 17.1875C17.2857 18.3262 16.3179 19.25 15.125 19.25ZM17.6593 0.00859375L19.0818 0.00429688C19.9551 0 20.4728 0.941016 19.9686 1.62852L3.48415 21.5531C3.38476 21.6884 3.25269 21.7989 3.09912 21.8752C2.94555 21.9515 2.77498 21.9913 2.60186 21.9914L1.09836 21.9957C0.220573 21.9957 -0.292597 21.0547 0.21157 20.3715L16.777 0.446875C16.9796 0.171875 17.3082 0.00859375 17.6593 0.00859375Z" fill="#30A971"/>
</svg>
