<?xml version="1.0"?>
<svg xmlns="http://www.w3.org/2000/svg" xmlns:xlink="http://www.w3.org/1999/xlink" xmlns:svgjs="http://svgjs.com/svgjs" version="1.1" width="512" height="512" x="0" y="0" viewBox="0 0 510 510" style="enable-background:new 0 0 512 512" xml:space="preserve" class=""><g><g xmlns="http://www.w3.org/2000/svg"><path d="m465 228h-23v-35c0-24.813-20.187-45-45-45h-40.017c.55-75.002-60.297-136-134.983-136-74.703 0-135.533 61.017-134.983 136h-42.017c-24.813 0-45 20.187-45 45v260c0 24.813 20.187 45 45 45h352c24.813 0 45-20.187 45-45v-35h23c24.813 0 45-20.187 45-45v-100c0-24.813-20.187-45-45-45zm-243-186c58.041 0 105.541 47.451 104.983 106h-74.009c.563-17.059-13.155-31-29.975-31-16.8 0-30.538 13.921-29.975 31h-76.009c-.555-58.495 46.886-106 104.985-106zm190 411c0 8.271-6.729 15-15 15h-352c-8.271 0-15-6.729-15-15v-260c0-8.271 6.729-15 15-15h352c8.271 0 15 6.729 15 15v35h-103c-24.813 0-45 20.187-45 45v100c0 24.813 20.187 45 45 45h103zm68-80c0 8.271-6.729 15-15 15h-156c-8.271 0-15-6.729-15-15v-100c0-8.271 6.729-15 15-15h156c8.271 0 15 6.729 15 15z" fill="#26C296" data-original="#000000" style="" class=""/><circle cx="362" cy="322" r="30" fill="#26C296" data-original="#000000" style="" class=""/></g></g></svg>
