<svg width="64" height="64" viewBox="0 0 64 64" fill="none" xmlns="http://www.w3.org/2000/svg">
<path d="M64 41.5V15.25H32L20.75 49L64 41.5Z" fill="#30A971" fill-opacity="0.83"/>
<path d="M32 15.25H0V41.5L32 52.75V15.25Z" fill="#6FBE99"/>
<path d="M64 41.5H32L17 51.8125L32 64H64V41.5Z" fill="#4FB385"/>
<path d="M0 41.5H32V64H0V41.5Z" fill="#30A971" fill-opacity="0.83"/>
<path d="M50.875 22.75H20.75L32 34H50.875C53.9766 34 56.5 31.4766 56.5 28.375C56.5 25.2734 53.9766 22.75 50.875 22.75Z" fill="#018D8F"/>
<path d="M13.125 22.75C10.0234 22.75 7.5 25.2734 7.5 28.375C7.5 31.4766 10.0234 34 13.125 34H32V22.75H13.125Z" fill="#30A971"/>
<path d="M32 0L23.0351 17L32 34C41.3888 34 49 26.3889 49 17C49 7.61112 41.3888 0 32 0Z" fill="#A0CACB"/>
<path d="M15 17C15 26.3889 22.6111 34 32 34V0C22.6111 0 15 7.61112 15 17Z" fill="#57DEE0"/>
<path d="M32 7.5L26.9902 17L32 26.5C37.2467 26.5 41.5 22.2467 41.5 17C41.5 11.7533 37.2467 7.5 32 7.5Z" fill="white" fill-opacity="0.63"/>
<path d="M22.5 17C22.5 22.2467 26.7533 26.5 32 26.5V7.5C26.7533 7.5 22.5 11.7533 22.5 17Z" fill="white"/>
</svg>
