<svg width="50" height="64" viewBox="0 0 50 64" fill="none" xmlns="http://www.w3.org/2000/svg">
<path d="M45.1049 30.4606C44.9257 30.271 45.5184 30.8668 35.2009 20.5492C34.6647 20.0128 33.858 19.8527 33.1575 20.1427C32.4569 20.433 32 21.1167 32 21.875V62.125C32 63.1605 32.8395 64 33.875 64H43.875C44.7691 64 45.539 63.3686 45.7137 62.4917L49.2075 44.973C50.2669 39.6983 48.7312 34.2711 45.1049 30.4606V30.4606Z" fill="#F5DCCC"/>
<path d="M38.3454 36.122L32.5491 30.3258C31.8169 29.5936 31.8169 28.4064 32.5491 27.6742C33.2813 26.9419 34.4685 26.9419 35.2008 27.6742L40.997 33.4704C41.7293 34.2027 41.7293 35.3898 40.997 36.122C40.265 36.8542 39.0776 36.8543 38.3454 36.122Z" fill="#F0CABB"/>
<path d="M35.75 5.625V58.375C35.75 61.4762 33.2263 64 30.125 64H5.625C2.52375 64 0 61.4762 0 58.375V5.625C0 2.52375 2.52375 0 5.625 0H30.125C33.2263 0 35.75 2.52375 35.75 5.625Z" fill="#BCEAF9"/>
<path d="M35.75 5.625V58.375C35.75 61.4762 33.2263 64 30.125 64H17.875V0H30.125C33.2263 0 35.75 2.52375 35.75 5.625Z" fill="#32DFFF" fill-opacity="0.63"/>
<path d="M30.125 0H5.625C2.52375 0 0 2.52375 0 5.625V58.375C0 61.4762 2.52375 64 5.625 64H30.125C33.2263 64 35.75 61.4762 35.75 58.375V5.625C35.75 2.52375 33.2263 0 30.125 0ZM32 52.125H3.75V5.625C3.75 4.59125 4.59125 3.75 5.625 3.75H30.125C31.1588 3.75 32 4.59125 32 5.625V52.125Z" fill="#30A971"/>
<path d="M35.75 5.625V58.375C35.75 61.4762 33.2263 64 30.125 64H17.875V52.125H32V5.625C32 4.59125 31.1588 3.75 30.125 3.75H17.875V0H30.125C33.2263 0 35.75 2.52375 35.75 5.625Z" fill="#018D8F"/>
<path d="M32.0541 29.7393C30.9848 28.654 29.5086 27.9932 27.8749 27.9932C24.631 27.9932 21.9999 30.6169 21.9999 33.8675C21.9999 35.4299 22.6051 36.8988 23.7048 38.0064L30.8875 45.5043C30.073 46.1248 29.1284 46.9885 28.2054 48.1582C25.4149 51.6947 24 56.3938 24 62.125V64H37.75V35.6527L32.0541 29.7393Z" fill="#F5DCCC"/>
</svg>
