<svg width="33" height="33" viewBox="0 0 33 33" fill="none" xmlns="http://www.w3.org/2000/svg">
<path d="M14.2984 27.0867C7.7263 26.8097 2.57812 21.4354 2.57812 14.8517C2.57812 8.09923 8.07171 2.60565 14.8242 2.60565C20.5181 2.60565 25.5457 6.63325 26.7787 12.1823C26.9331 12.8773 27.6215 13.3154 28.3167 13.1611C29.0117 13.0066 29.4499 12.3181 29.2954 11.6231C28.5755 8.38328 26.7524 5.44068 24.1618 3.33745C21.5328 1.20302 18.2166 0.0275269 14.8242 0.0275269C10.8645 0.0275269 7.14184 1.5695 4.34188 4.3694C1.54197 7.16937 0 10.892 0 14.8517C0 18.7008 1.4685 22.3485 4.13485 25.1228C6.79348 27.889 10.3644 29.5013 14.1898 29.6626C14.2083 29.6633 14.2267 29.6637 14.2451 29.6637C14.932 29.6637 15.5029 29.1217 15.5321 28.4289C15.5621 27.7176 15.0098 27.1167 14.2984 27.0867Z" fill="#BB6BD9"/>
<path d="M14.8242 5.19324C14.1122 5.19324 13.5351 5.77035 13.5351 6.4823V14.3178L9.37062 18.4823C8.86718 18.9857 8.86718 19.8018 9.37062 20.3053C9.62231 20.557 9.95219 20.6828 10.2821 20.6828C10.6121 20.6828 10.9419 20.557 11.1936 20.3053L15.7357 15.7632C15.9775 15.5215 16.1133 15.1936 16.1133 14.8517V6.4823C16.1133 5.77035 15.5361 5.19324 14.8242 5.19324Z" fill="#BB6BD9"/>
<path d="M30.348 16.0342C29.004 15.4856 27.2448 15.1835 25.3945 15.1835C23.5443 15.1835 21.7851 15.4856 20.4411 16.0342C18.1336 16.976 17.7891 18.3284 17.7891 19.0507V29.1053C17.7891 29.8276 18.1336 31.18 20.4411 32.1218C21.7851 32.6703 23.5443 32.9725 25.3945 32.9725C27.2448 32.9725 29.004 32.6703 30.348 32.1218C32.6554 31.18 33 29.8276 33 29.1053V19.0507C33 18.3283 32.6554 16.976 30.348 16.0342ZM30.4219 29.0645C30.2089 29.4608 28.4758 30.3944 25.3945 30.3944C22.3132 30.3944 20.5801 29.4608 20.3672 29.0645V26.9986C20.392 27.009 20.4157 27.0196 20.4411 27.03C21.7851 27.5786 23.5443 27.8807 25.3945 27.8807C25.8408 27.8807 26.2875 27.8631 26.7223 27.8282C27.4319 27.7713 27.9611 27.1498 27.9041 26.4401C27.8471 25.7304 27.2265 25.2016 26.516 25.2583C26.1496 25.2877 25.7723 25.3027 25.3945 25.3027C22.3124 25.3027 20.5794 24.3687 20.3672 23.9725V22.0359C20.392 22.0463 20.4157 22.0569 20.4411 22.0672C21.7851 22.6158 23.5443 22.918 25.3945 22.918C25.8408 22.918 26.2875 22.9003 26.7223 22.8654C27.4319 22.8085 27.9611 22.1871 27.9041 21.4774C27.8471 20.7677 27.2265 20.2388 26.516 20.2956C26.1496 20.325 25.7723 20.3399 25.3945 20.3399C22.4141 20.3399 20.6954 19.4666 20.3934 19.0508C20.6959 18.6348 22.4146 17.7618 25.3945 17.7618C28.4758 17.7618 30.2089 18.6953 30.4219 19.0917V29.0645V29.0645Z" fill="#BB6BD9"/>
</svg>
