<svg width="16" height="16" viewBox="0 0 16 16" fill="none" xmlns="http://www.w3.org/2000/svg">
<path d="M7.50745 3.65663C5.37754 3.65663 3.65954 5.37483 3.65954 7.505C3.65954 9.63517 5.37754 11.3534 7.50745 11.3534C9.63737 11.3534 11.3554 9.63517 11.3554 7.505C11.3554 5.37483 9.63737 3.65663 7.50745 3.65663ZM7.50745 10.0069C6.13104 10.0069 5.0058 8.88492 5.0058 7.505C5.0058 6.12508 6.1277 5.00305 7.50745 5.00305C8.88721 5.00305 10.0091 6.12508 10.0091 7.505C10.0091 8.88492 8.88386 10.0069 7.50745 10.0069ZM12.4103 3.49921C12.4103 3.99826 12.0084 4.39683 11.5128 4.39683C11.0138 4.39683 10.6153 3.99491 10.6153 3.49921C10.6153 3.00351 11.0171 2.60159 11.5128 2.60159C12.0084 2.60159 12.4103 3.00351 12.4103 3.49921ZM14.9588 4.41022C14.9019 3.20782 14.6273 2.14273 13.7465 1.26521C12.8691 0.387684 11.8041 0.11304 10.6019 0.0527519C9.36276 -0.017584 5.6488 -0.017584 4.4097 0.0527519C3.21078 0.10969 2.14582 0.384335 1.26506 1.26186C0.384289 2.13938 0.113026 3.20447 0.0527456 4.40687C-0.0175819 5.64612 -0.0175819 9.36053 0.0527456 10.5998C0.109677 11.8022 0.384289 12.8673 1.26506 13.7448C2.14582 14.6223 3.20743 14.897 4.4097 14.9572C5.6488 15.0276 9.36276 15.0276 10.6019 14.9572C11.8041 14.9003 12.8691 14.6257 13.7465 13.7448C14.6239 12.8673 14.8985 11.8022 14.9588 10.5998C15.0291 9.36053 15.0291 5.64947 14.9588 4.41022ZM13.358 11.9295C13.0968 12.5859 12.5911 13.0917 11.9314 13.3563C10.9434 13.7481 8.5992 13.6577 7.50745 13.6577C6.4157 13.6577 4.06811 13.7448 3.08352 13.3563C2.42713 13.095 1.92145 12.5893 1.65688 11.9295C1.26506 10.9414 1.35548 8.59688 1.35548 7.505C1.35548 6.41312 1.26841 4.06524 1.65688 3.08054C1.9181 2.42407 2.42378 1.91833 3.08352 1.65373C4.07146 1.26186 6.4157 1.35229 7.50745 1.35229C8.5992 1.35229 10.9468 1.26521 11.9314 1.65373C12.5878 1.91498 13.0935 2.42072 13.358 3.08054C13.7498 4.06859 13.6594 6.41312 13.6594 7.505C13.6594 8.59688 13.7498 10.9448 13.358 11.9295Z" fill="#30A971"/>
</svg>
