<svg width="18" height="14" viewBox="0 0 18 14" fill="none" xmlns="http://www.w3.org/2000/svg">
<path d="M16.1476 3.36195C16.159 3.50949 16.159 3.65706 16.159 3.8046C16.159 8.30476 12.4476 13.49 5.66421 13.49C3.57438 13.49 1.63303 12.9314 0 11.9619C0.296925 11.9935 0.58239 12.004 0.890739 12.004C2.6151 12.004 4.20247 11.4665 5.47007 10.5496C3.84846 10.518 2.4895 9.53786 2.02128 8.18885C2.2497 8.22045 2.47808 8.24153 2.71791 8.24153C3.04908 8.24153 3.38027 8.19936 3.68859 8.12562C1.99847 7.80942 0.730835 6.43936 0.730835 4.78473V4.74259C1.22187 4.99553 1.7929 5.15361 2.39811 5.17466C1.40458 4.56339 0.753684 3.52003 0.753684 2.33965C0.753684 1.70732 0.936366 1.12767 1.25614 0.621789C3.07189 2.68744 5.80123 4.03642 8.8617 4.18399C8.80461 3.93105 8.77034 3.6676 8.77034 3.40412C8.77034 1.52815 10.4148 0 12.4589 0C13.521 0 14.4802 0.411022 15.154 1.07498C15.9876 0.927444 16.787 0.642875 17.495 0.252939C17.2209 1.04339 16.6385 1.70735 15.8734 2.12888C16.6157 2.05514 17.3352 1.8654 17.9975 1.60195C17.4951 2.27642 16.867 2.87712 16.1476 3.36195Z" fill="#30A971"/>
</svg>
